<?xml version="1.0" encoding="UTF-8"?>
<svg id="Vrstva_1" data-name="Vrstva 1" xmlns="http://www.w3.org/2000/svg" version="1.1" viewBox="0 0 773 260">
  <defs>
    <style>
      .cls-1 {
        fill: #fff;
        stroke-width: 0px;
      }
    </style>
  </defs>
  <path class="cls-1" d="M772.9,54.9c0-2,0-4,0-6-.2-4.4-.4-8.7-1.2-13-.7-4.4-2-8.4-4-12.4-2-3.9-4.6-7.5-7.6-10.5-3.1-3.1-6.6-5.7-10.4-7.7-4-2-8-3.3-12.3-4.1-4.3-.8-8.6-1-12.9-1.1-2,0-4,0-6,0-2.3,0-4.7,0-7,0H61.6C59.2,0,56.9,0,54.5,0c-2,0-3.9,0-5.9,0-4.3.1-8.7.4-12.9,1.1-4.3.8-8.3,2.1-12.3,4.1-3.9,2-7.4,4.6-10.5,7.7-3.1,3.1-5.7,6.6-7.6,10.5-2,4-3.3,8-4,12.4C.5,40.2.2,44.5,0,48.9c0,2,0,4,0,6v150.2c0,2,0,4,0,6,.1,4.4.4,8.7,1.2,13,.8,4.4,2,8.4,4,12.4,2,3.9,4.5,7.4,7.6,10.5,3.1,3.1,6.6,5.7,10.5,7.7,3.9,2,8,3.3,12.3,4.1,4.3.8,8.6,1,12.9,1.1,2,0,4,0,5.9,0,2.4,0,4.7,0,7.1,0h649.9c2.3,0,4.7,0,7,0,2,0,4,0,6,0,4.3-.1,8.7-.4,12.9-1.1,4.3-.8,8.4-2.1,12.3-4.1,3.9-2,7.4-4.6,10.4-7.7,3.1-3.1,5.6-6.6,7.6-10.5,2-3.9,3.3-8,4-12.4.8-4.3,1-8.7,1.2-13,0-2,0-4,0-6,0-2.4,0-4.7,0-7.1V62c0-2.4,0-4.7,0-7.1h0ZM767.4,198c0,2.4,0,4.7,0,7,0,2.1,0,4,0,6-.1,3.8-.4,8-1.1,12-.7,4-1.8,7.5-3.5,10.9-1.7,3.4-4,6.4-6.6,9-2.7,2.7-5.7,4.9-9,6.6-3.4,1.7-6.8,2.8-10.8,3.6-4.1.8-8.4,1-12.1,1.1-1.9,0-3.9,0-5.8,0h-7s-656.9,0-656.9,0c-2,0-3.9,0-5.8,0-3.6-.1-7.9-.3-12.1-1.1-3.9-.7-7.4-1.9-10.7-3.6-3.4-1.7-6.4-3.9-9-6.6-2.7-2.6-4.9-5.7-6.6-9.1-1.7-3.3-2.8-6.8-3.5-10.8-.8-4.4-1-8.8-1.1-12.2,0-1.4,0-5.9,0-5.9V54.9s0-4.5,0-5.8c0-3.4.3-7.8,1.1-12.2.7-4,1.8-7.5,3.5-10.8,1.7-3.4,3.9-6.5,6.6-9.1,2.7-2.7,5.7-4.9,9.1-6.6,3.3-1.7,6.8-2.9,10.7-3.5,4.4-.8,8.8-1,12.1-1.1h5.8c0,0,663.9,0,663.9,0h5.9c3.3.2,7.7.4,12,1.1,3.9.7,7.4,1.8,10.8,3.6,3.3,1.7,6.3,3.9,9,6.6,2.6,2.6,4.9,5.7,6.6,9.1,1.7,3.3,2.8,6.8,3.5,10.7.7,4.1,1,8.3,1.1,12.3,0,1.8,0,3.8,0,5.8,0,2.4,0,4.8,0,7.1v136h0Z"/>
  <path class="cls-1" d="M161.5,129.3c-.2-18.6,15.1-27.6,15.8-28.1-8.7-12.7-22.1-14.4-26.8-14.6-11.3-1.2-22.2,6.8-28,6.8s-14.7-6.7-24.2-6.5c-12.3.2-23.8,7.3-30,18.4-13,22.6-3.3,55.9,9.1,74.2,6.2,9,13.5,19,23,18.6,9.3-.4,12.8-6,24-6s14.4,6,24.1,5.8c10-.2,16.3-9,22.3-18,7.2-10.3,10.1-20.4,10.2-20.9-.2,0-19.4-7.4-19.6-29.7h0Z"/>
  <path class="cls-1" d="M143.1,74.6c5-6.3,8.4-14.9,7.5-23.6-7.3.3-16.3,5-21.5,11.2-4.6,5.4-8.7,14.3-7.7,22.7,8.1.6,16.5-4.1,21.7-10.3h0Z"/>
  <path class="cls-1" d="M273.3,176.4h-30.6l-7.3,21.8h-13l29-80.7h13.5l29,80.7h-13.2l-7.3-21.8h0ZM245.8,166.3h24.2l-11.9-35.4h-.3l-12,35.4Z"/>
  <path class="cls-1" d="M356.3,168.8c0,18.3-9.7,30-24.4,30s-15-3.7-18.4-10.3h-.3v29.1h-12v-78.3h11.6v9.8h.2c3.3-6.3,10.5-10.4,18.6-10.4,14.8,0,24.6,11.8,24.6,30h0ZM344,168.8c0-11.9-6.1-19.7-15.5-19.7s-15.3,8-15.3,19.7,6.2,19.8,15.3,19.8,15.5-7.8,15.5-19.8Z"/>
  <path class="cls-1" d="M420.7,168.8c0,18.3-9.7,30-24.4,30s-15-3.7-18.4-10.3h-.3v29.1h-12v-78.3h11.6v9.8h.2c3.3-6.3,10.5-10.4,18.6-10.4,14.8,0,24.6,11.8,24.6,30h0ZM408.3,168.8c0-11.9-6.1-19.7-15.5-19.7s-15.3,8-15.3,19.7,6.2,19.8,15.3,19.8,15.5-7.8,15.5-19.8Z"/>
  <path class="cls-1" d="M463.2,175.7c.9,8,8.6,13.3,19.2,13.3s17.4-5.3,17.4-12.5-4.4-10-14.8-12.6l-10.4-2.5c-14.7-3.6-21.6-10.5-21.6-21.8s12.1-23.5,29.2-23.5,28.6,9.6,29,23.5h-12.1c-.7-8.1-7.3-12.9-17-12.9s-16.3,4.9-16.3,12.1,4.2,9.1,14.6,11.6l8.8,2.2c16.5,3.9,23.3,10.6,23.3,22.4s-11.9,24.6-31,24.6-29.8-9.2-30.6-23.8h12.3Z"/>
  <path class="cls-1" d="M538.4,125.4v13.9h11.1v9.6h-11.1v32.4c0,5,2.2,7.4,7.1,7.4s3.2-.2,4-.3v9.5c-1.3.3-4,.6-6.7.6-11.8,0-16.5-4.5-16.5-15.9v-33.7h-8.5v-9.6h8.5v-13.9h12.1Z"/>
  <path class="cls-1" d="M556,168.8c0-18.5,10.8-30.2,27.7-30.2s27.7,11.6,27.7,30.2-10.7,30.2-27.7,30.2-27.7-11.6-27.7-30.2ZM599.2,168.8c0-12.7-5.8-20.2-15.5-20.2s-15.5,7.6-15.5,20.2,5.8,20.2,15.5,20.2,15.5-7.4,15.5-20.2Z"/>
  <path class="cls-1" d="M621.3,139.4h11.4v10h.3c1.8-6.7,7.2-10.6,14.1-10.6s3.2.2,4.1.4v11.3c-.9-.4-3.1-.7-5.4-.7-7.7,0-12.5,5.3-12.5,13.5v34.9h-12v-58.8h0Z"/>
  <path class="cls-1" d="M706.6,180.9c-1.6,10.7-12,18-25.2,18s-27.6-11.5-27.6-29.9,10.6-30.4,27.1-30.4,26.4,11.2,26.4,29v4.1h-41.3v.7c0,10.1,6.3,16.7,15.7,16.7s11.9-3.2,13.5-8.3h11.4ZM666,163.4h29.2c-.3-9-6-14.9-14.3-14.9s-14.3,6-14.9,14.9Z"/>
  <path class="cls-1" d="M244.4,56.8c11.4,0,18.1,7.1,18.1,19.3s-6.7,19.5-18.1,19.5h-13.9v-38.8h13.9ZM236.4,90.1h7.3c8.1,0,12.7-5.1,12.7-13.9s-4.7-13.9-12.7-13.9h-7.3v27.8h0Z"/>
  <path class="cls-1" d="M269.2,80.9c0-9.4,5.2-15.2,13.7-15.2s13.7,5.7,13.7,15.2-5.2,15.2-13.7,15.2-13.7-5.7-13.7-15.2ZM290.8,80.9c0-6.3-2.8-10.1-7.8-10.1s-7.8,3.7-7.8,10.1,2.8,10.1,7.8,10.1,7.8-3.7,7.8-10.1Z"/>
  <path class="cls-1" d="M333.2,95.5h-6l-6-21.6h-.5l-6,21.6h-5.9l-8-29.3h5.8l5.2,22.3h.4l6-22.3h5.5l6,22.3h.5l5.2-22.3h5.7l-8,29.3h0Z"/>
  <path class="cls-1" d="M347.9,66.3h5.5v4.7h.4c1.4-3.3,4.3-5.2,8.7-5.2,6.5,0,10.1,3.9,10.1,10.9v18.9h-5.7v-17.5c0-4.7-2-7-6.3-7s-6.9,2.8-6.9,7.4v17.1h-5.7v-29.3Z"/>
  <path class="cls-1" d="M381.7,54.8h5.7v40.7h-5.7v-40.7Z"/>
  <path class="cls-1" d="M395.5,80.9c0-9.4,5.2-15.2,13.7-15.2s13.7,5.7,13.7,15.2-5.2,15.2-13.7,15.2-13.7-5.7-13.7-15.2ZM417,80.9c0-6.3-2.8-10.1-7.8-10.1s-7.8,3.7-7.8,10.1,2.8,10.1,7.8,10.1,7.8-3.7,7.8-10.1Z"/>
  <path class="cls-1" d="M428.9,87.3c0-5.3,3.9-8.3,10.8-8.7l7.9-.5v-2.5c0-3.1-2-4.8-6-4.8s-5.4,1.2-6.1,3.3h-5.6c.6-5,5.3-8.3,11.9-8.3s11.4,3.7,11.4,9.8v20h-5.5v-4.1h-.5c-1.7,2.9-4.9,4.6-8.7,4.6-5.6,0-9.7-3.4-9.7-8.8h0ZM447.6,84.8v-2.4l-7.1.5c-4,.3-5.8,1.6-5.8,4.2s2.3,4.2,5.4,4.2,7.5-2.8,7.5-6.4h0Z"/>
  <path class="cls-1" d="M460.9,80.9c0-9.2,4.7-15.1,12.1-15.1s7.3,1.9,8.9,5.1h.4v-16.1h5.7v40.7h-5.5v-4.6h-.5c-1.7,3.2-5.1,5.1-9.1,5.1-7.4,0-12.1-5.9-12.1-15.1ZM466.8,80.9c0,6.2,2.9,9.9,7.8,9.9s7.8-3.8,7.8-9.9-3-9.9-7.8-9.9-7.8,3.8-7.8,9.9Z"/>
  <path class="cls-1" d="M511.8,80.9c0-9.4,5.2-15.2,13.7-15.2s13.7,5.7,13.7,15.2-5.2,15.2-13.7,15.2-13.7-5.7-13.7-15.2ZM533.3,80.9c0-6.3-2.8-10.1-7.8-10.1s-7.8,3.7-7.8,10.1,2.8,10.1,7.8,10.1,7.8-3.7,7.8-10.1Z"/>
  <path class="cls-1" d="M546.9,66.3h5.5v4.7h.4c1.4-3.3,4.3-5.2,8.7-5.2,6.5,0,10.1,3.9,10.1,10.9v18.9h-5.7v-17.5c0-4.7-2-7-6.3-7s-6.9,2.8-6.9,7.4v17.1h-5.7v-29.3Z"/>
  <path class="cls-1" d="M604.1,59v7.4h6.3v4.9h-6.3v15c0,3.1,1.3,4.4,4.1,4.4s1.4,0,2.2-.1v4.8c-.9.2-2,.3-3.1.3-6.4,0-8.9-2.3-8.9-7.9v-16.5h-4.6v-4.9h4.6v-7.4h5.7Z"/>
  <path class="cls-1" d="M618.2,54.8h5.7v16.1h.5c1.4-3.3,4.5-5.2,8.9-5.2s10,4,10,10.9v18.9h-5.7v-17.5c0-4.7-2.2-7-6.2-7s-7.3,3-7.3,7.4v17.1h-5.7v-40.7Z"/>
  <path class="cls-1" d="M676.7,87.6c-1.3,5.2-6,8.5-12.6,8.5s-13.4-5.7-13.4-15.1,5.2-15.3,13.4-15.3,13,5.6,13,14.8v2h-20.5v.3c.2,5.1,3.2,8.4,7.7,8.4s5.9-1.3,6.9-3.6h5.5,0ZM656.5,78.2h14.7c-.1-4.6-2.9-7.6-7.2-7.6s-7.2,3-7.5,7.6Z"/>
</svg>