<svg width="68" height="86" viewBox="0 0 68 86" fill="none" xmlns="http://www.w3.org/2000/svg">
<path d="M21.0205 26L23.4805 16.4H25.7125L28.1725 26H26.7445L24.6205 17.42H24.5005L22.3645 26H21.0205ZM22.5205 22.748V21.452H26.6725V22.748H22.5205ZM29.9148 26V16.4H32.6028C33.8988 16.4 34.8708 16.804 35.5188 17.612C36.1748 18.412 36.5028 19.608 36.5028 21.2C36.5028 22.792 36.1748 23.992 35.5188 24.8C34.8708 25.6 33.8988 26 32.6028 26H29.9148ZM31.2828 24.716H32.6028C33.4508 24.716 34.0828 24.428 34.4988 23.852C34.9228 23.268 35.1348 22.384 35.1348 21.2C35.1348 20.008 34.9228 19.124 34.4988 18.548C34.0828 17.972 33.4508 17.684 32.6028 17.684H31.2828V24.716ZM38.3172 26V16.4H41.0052C42.3012 16.4 43.2732 16.804 43.9212 17.612C44.5772 18.412 44.9052 19.608 44.9052 21.2C44.9052 22.792 44.5772 23.992 43.9212 24.8C43.2732 25.6 42.3012 26 41.0052 26H38.3172ZM39.6852 24.716H41.0052C41.8532 24.716 42.4852 24.428 42.9012 23.852C43.3252 23.268 43.5372 22.384 43.5372 21.2C43.5372 20.008 43.3252 19.124 42.9012 18.548C42.4852 17.972 41.8532 17.684 41.0052 17.684H39.6852V24.716Z" fill="#CAFF58"/>
<path d="M62.2715 85.336C61.4331 85.336 60.7066 85.07 60.0918 84.538C59.4882 83.992 59.0131 83.222 58.6666 82.228C58.3312 81.234 58.1636 80.058 58.1636 78.7C58.1636 77.342 58.3312 76.166 58.6666 75.172C59.0131 74.178 59.4882 73.415 60.0918 72.883C60.7066 72.337 61.4331 72.064 62.2715 72.064C62.8192 72.064 63.3166 72.197 63.7638 72.463C64.2109 72.729 64.5406 73.093 64.753 73.555H65.256V67.192H67.1004V85H65.256V83.845H64.753C64.5406 84.293 64.2109 84.657 63.7638 84.937C63.3166 85.203 62.8192 85.336 62.2715 85.336ZM62.6571 83.173C63.5067 83.173 64.1606 82.781 64.6189 81.997C65.0883 81.213 65.3231 80.114 65.3231 78.7C65.3231 77.286 65.0883 76.187 64.6189 75.403C64.1606 74.619 63.5067 74.227 62.6571 74.227C61.8188 74.227 61.1649 74.619 60.6954 75.403C60.2371 76.187 60.0079 77.286 60.0079 78.7C60.0079 80.114 60.2371 81.213 60.6954 81.997C61.1649 82.781 61.8188 83.173 62.6571 83.173Z" fill="#CAFF58"/>
<path d="M48.3683 77.419H54.4212L53.8009 78.511C53.8009 77.097 53.5997 76.019 53.1972 75.277C52.7948 74.535 52.208 74.164 51.4367 74.164C50.5984 74.164 49.9444 74.556 49.475 75.34C49.0055 76.11 48.7708 77.195 48.7708 78.595C48.7708 80.093 49.0055 81.241 49.475 82.039C49.9444 82.837 50.6151 83.236 51.487 83.236C52.0571 83.236 52.5545 83.061 52.9793 82.711C53.404 82.347 53.7617 81.822 54.0524 81.136H55.7794C55.6117 82.004 55.3267 82.753 54.9242 83.383C54.533 84.013 54.0412 84.496 53.4487 84.832C52.8675 85.168 52.2136 85.336 51.487 85.336C50.5481 85.336 49.7377 85.07 49.0558 84.538C48.3851 84.006 47.8709 83.236 47.5132 82.228C47.1555 81.22 46.9767 80.009 46.9767 78.595C46.9767 77.251 47.1555 76.096 47.5132 75.13C47.8821 74.15 48.4019 73.394 49.0726 72.862C49.7432 72.33 50.5313 72.064 51.4367 72.064C52.2974 72.064 53.0296 72.316 53.6332 72.82C54.2368 73.324 54.7007 74.059 55.0248 75.025C55.349 75.977 55.5111 77.132 55.5111 78.49C55.5111 78.644 55.5055 78.805 55.4943 78.973C55.4943 79.141 55.4887 79.302 55.4776 79.456H48.3683V77.419Z" fill="#CAFF58"/>
<path d="M38.7911 85.336C37.9528 85.336 37.2262 85.07 36.6114 84.538C36.0078 83.992 35.5328 83.222 35.1862 82.228C34.8509 81.234 34.6832 80.058 34.6832 78.7C34.6832 77.342 34.8509 76.166 35.1862 75.172C35.5328 74.178 36.0078 73.415 36.6114 72.883C37.2262 72.337 37.9528 72.064 38.7911 72.064C39.3389 72.064 39.8363 72.197 40.2834 72.463C40.7305 72.729 41.0603 73.093 41.2727 73.555H41.7757V67.192H43.62V85H41.7757V83.845H41.2727C41.0603 84.293 40.7305 84.657 40.2834 84.937C39.8363 85.203 39.3389 85.336 38.7911 85.336ZM39.1768 83.173C40.0263 83.173 40.6802 82.781 41.1385 81.997C41.608 81.213 41.8427 80.114 41.8427 78.7C41.8427 77.286 41.608 76.187 41.1385 75.403C40.6802 74.619 40.0263 74.227 39.1768 74.227C38.3384 74.227 37.6845 74.619 37.215 75.403C36.7567 76.187 36.5276 77.286 36.5276 78.7C36.5276 80.114 36.7567 81.213 37.215 81.997C37.6845 82.781 38.3384 83.173 39.1768 83.173Z" fill="#CAFF58"/>
<path d="M31.7289 72.4V85H29.8846V84.055H29.3815C29.1244 84.461 28.7947 84.776 28.3923 85C28.0011 85.224 27.5595 85.336 27.0677 85.336C26.3747 85.336 25.7655 85.14 25.2401 84.748C24.7259 84.356 24.3235 83.803 24.0329 83.089C23.7422 82.375 23.5969 81.535 23.5969 80.569V72.4H25.4413V79.939C25.4413 80.989 25.6257 81.787 25.9946 82.333C26.3747 82.865 26.928 83.131 27.6545 83.131C28.3811 83.131 28.9344 82.865 29.3145 82.333C29.6945 81.787 29.8846 80.989 29.8846 79.939V72.4H31.7289Z" fill="#CAFF58"/>
<path d="M12.3263 67.192H17.2223V82.837H20.2571V85H12.3263V82.837H15.3779V69.355H12.3263V67.192Z" fill="#CAFF58"/>
<path d="M4.50955 85.336C3.59295 85.336 2.79931 85.07 2.12863 84.538C1.45795 84.006 0.938176 83.25 0.569302 82.27C0.200428 81.276 0.0159912 80.107 0.0159912 78.763C0.0159912 77.391 0.206017 76.208 0.586069 75.214C0.966121 74.206 1.50267 73.429 2.1957 72.883C2.89992 72.337 3.72709 72.064 4.67722 72.064C5.50439 72.064 6.23096 72.281 6.85693 72.715C7.4829 73.135 7.97473 73.737 8.33242 74.521C8.69012 75.291 8.88574 76.208 8.91927 77.272H7.2258C7.08049 76.306 6.77868 75.557 6.32039 75.025C5.87326 74.493 5.30319 74.227 4.61015 74.227C3.72709 74.227 3.04523 74.626 2.56458 75.424C2.08392 76.222 1.84359 77.335 1.84359 78.763C1.84359 80.149 2.07833 81.234 2.54781 82.018C3.01728 82.788 3.6712 83.173 4.50955 83.173C5.13552 83.173 5.66088 82.942 6.08565 82.48C6.52159 82.004 6.8234 81.346 6.99107 80.506H8.68453C8.62864 81.486 8.41626 82.34 8.04739 83.068C7.67851 83.782 7.18668 84.342 6.57189 84.748C5.96828 85.14 5.28083 85.336 4.50955 85.336Z" fill="#CAFF58"/>
<path d="M59.002 63V50.4H60.8463V51.345H61.3493C61.6064 50.939 61.9362 50.624 62.3386 50.4C62.741 50.176 63.1825 50.064 63.6632 50.064C64.3674 50.064 64.9766 50.26 65.4908 50.652C66.005 51.044 66.4074 51.597 66.698 52.311C66.9886 53.025 67.1339 53.865 67.1339 54.831V63H65.2896V55.461C65.2896 54.411 65.0996 53.62 64.7195 53.088C64.3506 52.542 63.8029 52.269 63.0763 52.269C62.3498 52.269 61.7965 52.542 61.4164 53.088C61.0364 53.62 60.8463 54.411 60.8463 55.461V63H59.002Z" fill="#CAFF58"/>
<path d="M47.7983 50.4H52.6943V60.837H55.7291V63H47.7983V60.837H50.8499V52.563H47.7983V50.4ZM51.638 48.531C51.202 48.531 50.8611 48.384 50.6152 48.09C50.3693 47.782 50.2463 47.362 50.2463 46.83C50.2463 46.298 50.3693 45.885 50.6152 45.591C50.8611 45.283 51.202 45.129 51.638 45.129C52.0739 45.129 52.4149 45.283 52.6608 45.591C52.9067 45.885 53.0296 46.298 53.0296 46.83C53.0296 47.362 52.9067 47.782 52.6608 48.09C52.4149 48.384 52.0739 48.531 51.638 48.531Z" fill="#CAFF58"/>
<path d="M23.7814 63V50.4H25.6257V51.345H26.1288C26.3858 50.939 26.7156 50.624 27.118 50.4C27.5204 50.176 27.9619 50.064 28.4426 50.064C29.1468 50.064 29.756 50.26 30.2702 50.652C30.7844 51.044 31.1868 51.597 31.4774 52.311C31.7681 53.025 31.9134 53.865 31.9134 54.831V63H30.069V55.461C30.069 54.411 29.879 53.62 29.4989 53.088C29.13 52.542 28.5823 52.269 27.8558 52.269C27.1292 52.269 26.5759 52.542 26.1958 53.088C25.8158 53.62 25.6257 54.411 25.6257 55.461V63H23.7814Z" fill="#CAFF58"/>
<path d="M15.5623 47.124V50.4H20.0893V52.563H15.5623V58.863C15.5623 59.605 15.6852 60.179 15.9311 60.585C16.177 60.977 16.5347 61.173 17.0042 61.173C17.496 61.173 17.8761 60.963 18.1444 60.543C18.4238 60.109 18.6306 59.458 18.7648 58.59H20.3911C20.3353 60.13 20.0111 61.306 19.4187 62.118C18.8262 62.93 17.9991 63.336 16.9371 63.336C15.9088 63.336 15.1151 62.951 14.5562 62.181C13.9973 61.411 13.7179 60.333 13.7179 58.947V52.563H11.5046V50.4H13.7179V47.124H15.5623Z" fill="#CAFF58"/>
<path d="M4.97904 63.336C4.4425 63.336 3.95067 63.203 3.50355 62.937C3.05643 62.657 2.72109 62.293 2.49753 61.845H1.99452V63H0.150146V45.192H1.99452V51.555H2.49753C2.72109 51.093 3.05643 50.729 3.50355 50.463C3.95067 50.197 4.4425 50.064 4.97904 50.064C5.81739 50.064 6.54396 50.337 7.15875 50.883C7.77354 51.415 8.24861 52.178 8.58395 53.172C8.91929 54.166 9.08696 55.342 9.08696 56.7C9.08696 58.058 8.91929 59.234 8.58395 60.228C8.24861 61.222 7.77354 61.992 7.15875 62.538C6.54396 63.07 5.81739 63.336 4.97904 63.336ZM4.5934 61.173C5.43175 61.173 6.08008 60.781 6.53837 59.997C7.00785 59.213 7.24259 58.114 7.24259 56.7C7.24259 55.286 7.00785 54.187 6.53837 53.403C6.08008 52.619 5.43175 52.227 4.5934 52.227C3.74387 52.227 3.08437 52.619 2.6149 53.403C2.1566 54.187 1.92745 55.286 1.92745 56.7C1.92745 58.114 2.1566 59.213 2.6149 59.997C3.08437 60.781 3.74387 61.173 4.5934 61.173Z" fill="#CAFF58"/>
<rect x="0.5" y="0.5" width="64" height="37" stroke="#CAFF58"/>
<rect x="3.5" y="3.5" width="64" height="37" stroke="#CAFF58"/>
</svg>
