<svg width="259" height="86" viewBox="0 0 259 86" fill="none" xmlns="http://www.w3.org/2000/svg">
<g clip-path="url(#clip0_252_51)">
<path d="M258.983 18.1554C258.983 17.4955 258.983 16.8356 258.974 16.1756C258.923 14.7346 258.838 13.2952 258.573 11.8715C258.327 10.4304 257.896 9.08807 257.234 7.77864C256.566 6.49172 255.708 5.31219 254.676 4.29374C253.652 3.27529 252.468 2.41793 251.176 1.75974C249.844 1.09464 248.496 0.663354 247.046 0.412206C245.621 0.155862 244.167 0.0675271 242.716 0.032886C242.057 0.0224936 241.38 0.0103693 240.721 0.00517309C239.944 0.00170898 239.154 0.00170898 238.374 0.00170898H20.6361C19.8427 0.00170898 19.0581 0.00170898 18.2665 0.00517309C17.6039 0.0086372 16.9465 0.0224936 16.277 0.032886C14.8367 0.0692591 13.3773 0.157594 11.9405 0.412206C10.4915 0.663354 9.14544 1.09464 7.8255 1.75974C6.52997 2.41966 5.34603 3.27529 4.32251 4.29374C3.28678 5.31219 2.4289 6.49172 1.77155 7.77864C1.0985 9.08634 0.671305 10.4304 0.418476 11.8715C0.160416 13.2952 0.069746 14.7346 0.0331293 16.1756C0.0122055 16.8356 0.0104619 17.4955 0 18.1554V67.8515C0.0104619 68.5183 0.0122055 69.1661 0.0331293 69.833C0.069746 71.274 0.160416 72.7134 0.42022 74.1371C0.673049 75.5782 1.10024 76.9275 1.77329 78.2317C2.4289 79.5117 3.28852 80.693 4.32425 81.7027C5.34777 82.7299 6.53171 83.5838 7.82724 84.2367C9.14544 84.9088 10.4933 85.3331 11.9423 85.5929C13.3808 85.8493 14.8385 85.9324 16.2787 85.9723C16.9483 85.9861 17.6056 85.9948 18.2682 85.9948C19.0598 85.9982 19.8445 85.9982 20.6378 85.9982H238.376C239.154 85.9982 239.944 85.9982 240.723 85.9948C241.382 85.9948 242.059 85.9861 242.718 85.9723C244.168 85.9324 245.623 85.8476 247.047 85.5929C248.498 85.3331 249.846 84.9088 251.178 84.2367C252.472 83.5838 253.656 82.7299 254.677 81.7027C255.708 80.693 256.568 79.5134 257.235 78.2317C257.9 76.9275 258.33 75.5782 258.575 74.1371C258.841 72.7134 258.925 71.274 258.976 69.833C258.984 69.1644 258.984 68.5183 258.984 67.8515C259.002 67.0703 259.002 66.2944 259.002 65.4994V20.5023C259.002 19.7142 259.002 18.9331 258.984 18.1554H258.983ZM257.11 65.4994C257.11 66.2805 257.11 67.0426 257.092 67.8117C257.092 68.5114 257.092 69.1505 257.084 69.8105C257.04 71.0766 256.962 72.4692 256.714 73.7959C256.491 75.114 256.109 76.2797 255.546 77.3865C254.962 78.5036 254.221 79.5134 253.347 80.3656C252.453 81.2645 251.438 81.9972 250.318 82.5636C249.195 83.13 248.05 83.5058 246.709 83.7448C245.323 83.9943 243.888 84.0618 242.664 84.0947C242.029 84.1086 241.366 84.1172 240.721 84.1172L238.374 84.1207L18.2769 84.1172C17.6178 84.1172 16.9744 84.1086 16.3206 84.0947C15.1105 84.0618 13.6754 83.9943 12.2753 83.7448C10.9536 83.5075 9.78013 83.1213 8.68861 82.567C7.56047 81.9989 6.54566 81.2628 5.66512 80.3812C4.76888 79.5082 4.03306 78.5036 3.45591 77.3795C2.89446 76.2935 2.51086 75.1296 2.28069 73.8167C2.01566 72.3704 1.9494 70.9017 1.91976 69.7862C1.90581 69.3324 1.88837 67.8238 1.88837 67.8238V18.1554C1.88837 18.1554 1.90755 16.6693 1.91976 16.2328C1.94766 15.107 2.01566 13.6399 2.27721 12.2075C2.50911 10.8877 2.89271 9.72373 3.45417 8.63427C4.02957 7.5067 4.76714 6.49865 5.65117 5.62916C6.54566 4.73888 7.5657 4.00276 8.68686 3.43118C9.79931 2.86999 10.971 2.48721 12.2648 2.26204C13.7225 2.00223 15.1994 1.93815 16.324 1.9087L18.2769 1.88272H240.709L242.685 1.91043C243.794 1.93815 245.272 2.00223 246.707 2.26031C248.012 2.48721 249.19 2.87172 250.324 3.43811C251.433 4.00276 252.449 4.74061 253.335 5.62223C254.221 6.49518 254.962 7.51017 255.549 8.6412C256.107 9.74105 256.487 10.905 256.707 12.1867C256.958 13.5429 257.037 14.9355 257.084 16.2449C257.091 16.8546 257.091 17.5076 257.091 18.1588C257.108 18.9642 257.108 19.7333 257.108 20.5058V65.5028L257.11 65.4994Z" fill="#CAFF58"/>
<path d="M54.102 42.7626C54.0462 36.6121 59.1708 33.6191 59.4062 33.4788C56.503 29.2751 52.0044 28.7 50.4229 28.655C46.6426 28.2601 42.9792 30.9015 41.0525 30.9015C39.1258 30.9015 36.1232 28.6948 32.9306 28.7589C28.8208 28.823 24.9726 31.1873 22.8627 34.8575C18.5106 42.3434 21.7573 53.3454 25.9263 59.3972C28.0117 62.3608 30.4511 65.6707 33.6402 65.553C36.7614 65.4248 37.9279 63.5749 41.6959 63.5749C45.4639 63.5749 46.5241 65.553 49.7777 65.4785C53.1273 65.4248 55.2388 62.5028 57.251 59.5116C59.6625 56.115 60.6302 52.7687 60.6686 52.5972C60.5901 52.5712 54.1613 50.1359 54.0985 42.7608L54.102 42.7626Z" fill="#CAFF58"/>
<path d="M47.9539 24.6748C49.633 22.5876 50.7821 19.7505 50.463 16.8701C48.0323 16.9775 44.9932 18.5398 43.2443 20.5802C41.6959 22.3781 40.3132 25.326 40.6706 28.0956C43.4012 28.2965 46.2032 26.7272 47.9556 24.6748H47.9539Z" fill="#CAFF58"/>
<path d="M91.5573 58.3493H81.3116L78.8513 65.5651H74.5114L84.2148 38.8672H88.7239L98.4273 65.5651H94.0141L91.5556 58.3493H91.5573ZM82.3735 55.0203H90.4937L86.4903 43.3082H86.3787L82.3735 55.0203Z" fill="#CAFF58"/>
<path d="M119.386 55.8344C119.386 61.8827 116.127 65.7695 111.208 65.7695C108.417 65.7695 106.199 64.5293 105.043 62.3643H104.95V72.0049H100.928V46.1003H104.821V49.3375H104.894C106.012 47.2486 108.397 45.8959 111.133 45.8959C116.106 45.8959 119.384 49.8017 119.384 55.8327L119.386 55.8344ZM115.252 55.8344C115.252 51.894 113.201 49.3028 110.073 49.3028C106.945 49.3028 104.933 51.9477 104.933 55.8344C104.933 59.7211 107.001 62.3833 110.073 62.3833C113.145 62.3833 115.252 59.8112 115.252 55.8344Z" fill="#CAFF58"/>
<path d="M140.955 55.8344C140.955 61.8827 137.694 65.7695 132.775 65.7695C129.984 65.7695 127.766 64.5293 126.61 62.3643H126.517V72.0049H122.495V46.1003H126.388V49.3375H126.462C127.579 47.2486 129.965 45.8959 132.7 45.8959C137.673 45.8959 140.953 49.8017 140.953 55.8327L140.955 55.8344ZM136.819 55.8344C136.819 51.894 134.768 49.3028 131.64 49.3028C128.512 49.3028 126.5 51.9477 126.5 55.8344C126.5 59.7211 128.568 62.3833 131.64 62.3833C134.713 62.3833 136.819 59.8112 136.819 55.8344Z" fill="#CAFF58"/>
<path d="M155.207 58.1277C155.506 60.776 158.095 62.5133 161.633 62.5133C165.171 62.5133 167.462 60.7743 167.462 58.3875C167.462 56.316 165.99 55.0741 162.508 54.2236L159.024 53.3905C154.088 52.2058 151.797 49.9143 151.797 46.1938C151.797 41.5866 155.839 38.4238 161.575 38.4238C167.312 38.4238 171.15 41.5883 171.28 46.1938H167.219C166.977 43.5299 164.759 41.9208 161.52 41.9208C158.28 41.9208 156.062 43.5472 156.062 45.9167C156.062 47.8046 157.478 48.9149 160.942 49.7653L163.903 50.4876C169.418 51.7832 171.706 53.9829 171.706 57.8887C171.706 62.8839 167.702 66.012 161.331 66.012C155.371 66.012 151.347 62.9567 151.086 58.1277H155.202H155.207Z" fill="#CAFF58"/>
<path d="M180.395 41.4948V46.102H184.121V49.2665H180.395V59.9983C180.395 61.6645 181.141 62.4422 182.778 62.4422C183.188 62.4422 183.842 62.3851 184.102 62.3504V65.4958C183.655 65.6067 182.761 65.6812 181.868 65.6812C177.901 65.6812 176.353 64.2003 176.353 60.4261V49.2682H173.504V46.1037H176.353V41.4965H180.395V41.4948Z" fill="#CAFF58"/>
<path d="M186.276 55.8345C186.276 49.71 189.908 45.8613 195.57 45.8613C201.231 45.8613 204.865 49.71 204.865 55.8345C204.865 61.959 201.27 65.8077 195.57 65.8077C189.87 65.8077 186.276 61.9764 186.276 55.8345ZM200.767 55.8345C200.767 51.6325 198.828 49.154 195.57 49.154C192.311 49.154 190.372 51.6533 190.372 55.8345C190.372 60.0157 192.311 62.5133 195.57 62.5133C198.828 62.5133 200.767 60.0521 200.767 55.8345Z" fill="#CAFF58"/>
<path d="M208.181 46.1004H212.017V49.4138H212.11C212.725 47.2106 214.512 45.8977 216.823 45.8977C217.4 45.8977 217.885 45.9739 218.2 46.0467V49.7844C217.883 49.6545 217.175 49.5437 216.394 49.5437C213.805 49.5437 212.202 51.2844 212.202 54.0228V65.5687H208.18V46.1038L208.181 46.1004Z" fill="#CAFF58"/>
<path d="M236.748 59.8494C236.207 63.3828 232.742 65.8077 228.31 65.8077C222.61 65.8077 219.07 62.0145 219.07 55.9263C219.07 49.8381 222.627 45.8613 228.141 45.8613C233.654 45.8613 236.972 49.561 236.972 55.4621V56.8304H223.131V57.0712C223.131 60.4019 225.236 62.5843 228.402 62.5843C230.636 62.5843 232.388 61.5295 232.927 59.8459H236.746L236.748 59.8494ZM223.151 54.0401H232.948C232.856 51.061 230.936 49.1003 228.141 49.1003C225.346 49.1003 223.356 51.0991 223.151 54.0401Z" fill="#CAFF58"/>
<path d="M81.8714 18.772C85.7022 18.772 87.948 21.1103 87.948 25.146C87.948 29.1816 85.7178 31.5996 81.8714 31.5996H77.2071V18.7703H81.8714V18.772ZM79.2123 29.7861H81.6464C84.3473 29.7861 85.9062 28.1147 85.9062 25.1719C85.9062 22.2292 84.3229 20.5837 81.6464 20.5837H79.2123V29.7844V29.7861Z" fill="#CAFF58"/>
<path d="M90.213 26.755C90.213 23.6339 91.9671 21.7321 94.8127 21.7321C97.6583 21.7321 99.4055 23.6339 99.4055 26.755C99.4055 29.8762 97.6601 31.7866 94.8127 31.7866C91.9653 31.7866 90.213 29.8935 90.213 26.755ZM97.4264 26.755C97.4264 24.6558 96.4779 23.4295 94.8127 23.4295C93.1475 23.4295 92.2007 24.6575 92.2007 26.755C92.2007 28.8525 93.1405 30.0875 94.8127 30.0875C96.4849 30.0875 97.4264 28.8612 97.4264 26.755Z" fill="#CAFF58"/>
<path d="M111.625 31.5995H109.63L107.616 24.4687H107.465L105.459 31.5995H103.484L100.797 21.9191H102.748L104.493 29.3063H104.636L106.64 21.9191H108.485L110.488 29.3063H110.64L112.377 21.9191H114.3L111.623 31.5995H111.625Z" fill="#CAFF58"/>
<path d="M116.56 21.9191H118.411V23.4572H118.554C119.029 22.3816 119.996 21.7321 121.463 21.7321C123.637 21.7321 124.837 23.0294 124.837 25.333V31.5996H122.913V25.8128C122.913 24.2574 122.233 23.4832 120.811 23.4832C119.388 23.4832 118.483 24.4254 118.483 25.9358V31.5996H116.56V21.9191Z" fill="#CAFF58"/>
<path d="M127.902 18.1398H129.825V31.5996H127.902V18.1398Z" fill="#CAFF58"/>
<path d="M132.5 26.755C132.5 23.6339 134.254 21.7321 137.1 21.7321C139.945 21.7321 141.694 23.6339 141.694 26.755C141.694 29.8762 139.947 31.7866 137.1 31.7866C134.252 31.7866 132.5 29.8935 132.5 26.755ZM139.713 26.755C139.713 24.6558 138.765 23.4295 137.1 23.4295C135.435 23.4295 134.488 24.6575 134.488 26.755C134.488 28.8525 135.428 30.0875 137.1 30.0875C138.772 30.0875 139.713 28.8612 139.713 26.755Z" fill="#CAFF58"/>
<path d="M143.717 28.8629C143.717 27.1205 145.023 26.1159 147.342 25.9721L149.982 25.8214V24.9866C149.982 23.9647 149.302 23.3862 147.987 23.3862C146.913 23.3862 146.17 23.7776 145.956 24.4618H144.093C144.291 22.799 145.865 21.7321 148.076 21.7321C150.519 21.7321 151.898 22.941 151.898 24.9849V31.5996H150.046V30.2382H149.895C149.314 31.2064 148.249 31.7589 146.967 31.7589C145.087 31.7589 143.719 30.6296 143.719 28.8612L143.717 28.8629ZM149.982 28.035V27.2261L147.602 27.3768C146.259 27.4669 145.651 27.919 145.651 28.7729C145.651 29.6268 146.411 30.1516 147.457 30.1516C148.908 30.1516 149.98 29.2353 149.98 28.035H149.982Z" fill="#CAFF58"/>
<path d="M154.425 26.755C154.425 23.6962 156.008 21.758 158.47 21.758C159.804 21.758 160.93 22.3885 161.458 23.4572H161.601V18.1398H163.525V31.5996H161.682V30.0702H161.53C160.949 31.1285 159.811 31.7589 158.47 31.7589C155.99 31.7589 154.425 29.8207 154.425 26.755ZM156.412 26.755C156.412 28.8092 157.387 30.0442 159.016 30.0442C160.644 30.0442 161.638 28.7902 161.638 26.7637C161.638 24.7372 160.625 23.4745 159.016 23.4745C157.406 23.4745 156.412 24.7181 156.412 26.755Z" fill="#CAFF58"/>
<path d="M171.484 26.755C171.484 23.6339 173.239 21.7321 176.084 21.7321C178.93 21.7321 180.677 23.6339 180.677 26.755C180.677 29.8762 178.932 31.7866 176.084 31.7866C173.237 31.7866 171.484 29.8935 171.484 26.755ZM178.698 26.755C178.698 24.6558 177.749 23.4295 176.084 23.4295C174.419 23.4295 173.472 24.6575 173.472 26.755C173.472 28.8525 174.412 30.0875 176.084 30.0875C177.756 30.0875 178.698 28.8612 178.698 26.755Z" fill="#CAFF58"/>
<path d="M183.258 21.9191H185.109V23.4572H185.252C185.727 22.3816 186.694 21.7321 188.161 21.7321C190.335 21.7321 191.535 23.0294 191.535 25.333V31.5996H189.611V25.8128C189.611 24.2574 188.931 23.4832 187.509 23.4832C186.086 23.4832 185.181 24.4254 185.181 25.9358V31.5996H183.258V21.9191Z" fill="#CAFF58"/>
<path d="M202.403 19.5081V21.9624H204.514V23.5715H202.403V28.5494C202.403 29.5626 202.823 30.0078 203.78 30.0078C204.077 30.0078 204.246 29.9905 204.514 29.9645V31.5562C204.202 31.6082 203.843 31.6532 203.468 31.6532C201.329 31.6532 200.478 30.905 200.478 29.0396V23.5715H198.931V21.9624H200.478V19.5081H202.403Z" fill="#CAFF58"/>
<path d="M207.142 18.1398H209.048V23.4745H209.2C209.674 22.3885 210.703 21.7407 212.171 21.7407C214.246 21.7407 215.527 23.0484 215.527 25.3503V31.6013H213.602V25.8214C213.602 24.2747 212.877 23.4918 211.519 23.4918C209.942 23.4918 209.065 24.4791 209.065 25.9461V31.5996H207.142V18.1398Z" fill="#CAFF58"/>
<path d="M226.744 28.9859C226.307 30.7197 224.749 31.7866 222.521 31.7866C219.73 31.7866 218.019 29.8848 218.019 26.7897C218.019 23.6945 219.764 21.7321 222.512 21.7321C225.26 21.7321 226.861 23.5715 226.861 26.613V27.2798H219.979V27.3872C220.042 29.0846 221.036 30.1602 222.575 30.1602C223.74 30.1602 224.537 29.7428 224.894 28.9859H226.746H226.744ZM219.979 25.8665H224.901C224.858 24.3457 223.926 23.3585 222.502 23.3585C221.077 23.3585 220.085 24.3544 219.979 25.8665Z" fill="#CAFF58"/>
</g>
<defs>
<clipPath id="clip0_252_51">
<rect width="259" height="86" fill="white"/>
</clipPath>
</defs>
</svg>
