<svg width="90" height="87" viewBox="0 0 90 87" fill="none" xmlns="http://www.w3.org/2000/svg">
<path d="M78.343 61.6256V1H80.9803L84.1272 11.5932H84.3045L87.4514 1H90V61.6256H88.5373V6.62902L88.5817 2.13024H88.36L85.3018 12.4797H83.0413L79.983 2.13024H79.7614L79.8057 6.62902V61.6256H78.343Z" fill="#CAFF58"/>
<path d="M68.6542 41.3497C66.6448 41.3497 65.1305 40.5888 64.111 39.0671C63.1064 37.5306 62.6041 35.2331 62.6041 32.1749C62.6041 29.1166 63.1064 26.8266 64.111 25.3048C65.1305 23.7683 66.6448 23 68.6542 23C70.6635 23 72.1704 23.7683 73.1751 25.3048C74.1945 26.8266 74.7042 29.1166 74.7042 32.1749C74.7042 35.2331 74.1945 37.5306 73.1751 39.0671C72.1704 40.5888 70.6635 41.3497 68.6542 41.3497ZM68.6542 39.8871C70.1611 39.8871 71.284 39.2518 72.0227 37.9812C72.7614 36.7106 73.1308 34.7751 73.1308 32.1749C73.1308 29.5746 72.7614 27.6391 72.0227 26.3685C71.284 25.098 70.1611 24.4627 68.6542 24.4627C67.1472 24.4627 66.0243 25.098 65.2856 26.3685C64.5469 27.6391 64.1775 29.5746 64.1775 32.1749C64.1775 34.7751 64.5469 36.7106 65.2856 37.9812C66.0243 39.2518 67.1472 39.8871 68.6542 39.8871Z" fill="#CAFF58"/>
<path d="M52.3612 61.6256L52.3611 2.5H47.0867V1.03734H59.1869V2.5H53.9124L53.9125 61.6256H52.3612Z" fill="#CAFF58"/>
<path d="M33.7411 36.5185C33.8888 37.6266 34.3099 38.4687 35.0043 39.0449C35.7135 39.6063 36.6812 39.8871 37.9075 39.8871C39.0598 39.8871 39.9611 39.5694 40.6112 38.9341C41.276 38.2988 41.6084 37.4197 41.6084 36.2969C41.6084 35.3809 41.3573 34.6569 40.8549 34.1251C40.3526 33.5932 39.5917 33.2534 38.5723 33.1056L36.7329 32.8619C35.3146 32.6402 34.236 32.1305 33.4973 31.3327C32.7734 30.5201 32.4114 29.4416 32.4114 28.0971C32.4114 27.0482 32.633 26.1469 33.0762 25.3934C33.5195 24.6252 34.1548 24.0342 34.9821 23.6205C35.8095 23.2068 36.7846 23 37.9075 23C39.0451 23 40.0202 23.2068 40.8328 23.6205C41.6454 24.0194 42.2807 24.6104 42.7387 25.3934C43.1967 26.1765 43.4626 27.1368 43.5365 28.2744H42.0295C41.8817 27.0186 41.4607 26.0731 40.7663 25.4378C40.0719 24.7877 39.1189 24.4627 37.9075 24.4627C36.6812 24.4627 35.7135 24.7877 35.0043 25.4378C34.3099 26.0731 33.9627 26.9595 33.9627 28.0971C33.9627 28.9984 34.2139 29.7149 34.7162 30.2468C35.2185 30.7787 35.9794 31.1259 36.9988 31.2884L38.8382 31.5322C40.2713 31.7538 41.3499 32.2709 42.0738 33.0835C42.7978 33.8813 43.1597 34.9524 43.1597 36.2969C43.1597 37.3311 42.9455 38.2249 42.517 38.9784C42.0886 39.7319 41.4828 40.3155 40.6998 40.7292C39.9168 41.1429 38.986 41.3497 37.9075 41.3497C36.7551 41.3497 35.7652 41.165 34.9378 40.7957C34.1104 40.4263 33.4678 39.8797 33.0098 39.1557C32.5518 38.4318 32.2858 37.5527 32.2119 36.5185H33.7411Z" fill="#CAFF58"/>
<path d="M16.6725 1H18.2238V56.0631C18.2238 57.4519 18.5636 58.5378 19.2432 59.3209C19.9228 60.0891 20.8832 60.4733 22.1242 60.4733C23.3505 60.4733 24.3034 60.0891 24.983 59.3209C25.6774 58.5378 26.0246 57.4519 26.0246 56.0631V1H27.5316V56.1518C27.5316 57.9986 27.0588 59.4243 26.1133 60.429C25.1825 61.4336 23.8454 61.9359 22.102 61.9359C20.3587 61.9359 19.0142 61.4336 18.0686 60.429C17.1379 59.4243 16.6725 57.9986 16.6725 56.1518L16.6725 1Z" fill="#CAFF58"/>
<path d="M6.91712 41.3497C4.95213 41.3497 3.4747 40.5888 2.48482 39.0671C1.49494 37.5306 1 35.2331 1 32.1749C1 29.1166 1.50971 26.8266 2.52914 25.3048C3.54857 23.7683 5.07771 23 7.11657 23C8.22465 23 9.1702 23.2438 9.95324 23.7313C10.7363 24.2189 11.3568 24.9354 11.8148 25.881C12.2876 26.8266 12.5757 27.9937 12.6791 29.3825H11.1943C11.017 27.7573 10.5885 26.5311 9.90892 25.7037C9.2293 24.8763 8.29852 24.4627 7.11657 24.4627C5.59482 24.4627 4.45719 25.098 3.7037 26.3685C2.95021 27.6391 2.57347 29.5746 2.57347 32.1749C2.57347 34.7751 2.92805 36.7106 3.63722 37.9812C4.36116 39.2518 5.45446 39.8871 6.91712 39.8871C8.05474 39.8871 8.95598 39.5103 9.62082 38.7568C10.2857 37.9886 10.7067 36.8509 10.884 35.344H12.3688C12.2507 36.6441 11.9626 37.7448 11.5045 38.646C11.0613 39.5325 10.4482 40.2047 9.66514 40.6627C8.89688 41.1207 7.98087 41.3497 6.91712 41.3497Z" fill="#CAFF58"/>
<path d="M86.2629 86.4978C85.6141 86.4978 85.0518 86.2258 84.576 85.6818C84.1089 85.1235 83.7412 84.3361 83.473 83.3197C83.2135 82.3033 83.0837 81.1007 83.0837 79.7121C83.0837 78.3235 83.2135 77.1209 83.473 76.1045C83.7412 75.0881 84.1089 74.3079 84.576 73.7639C85.0518 73.2055 85.6141 72.9264 86.2629 72.9264C86.6868 72.9264 87.0717 73.0624 87.4178 73.3344C87.7638 73.6064 88.019 73.9786 88.1834 74.451H88.5726V67.9445H90V86.1542H88.5726V84.9732H88.1834C88.019 85.4313 87.7638 85.8035 87.4178 86.0898C87.0717 86.3618 86.6868 86.4978 86.2629 86.4978ZM86.5613 84.286C87.2188 84.286 87.7249 83.8852 88.0795 83.0835C88.4429 82.2818 88.6245 81.158 88.6245 79.7121C88.6245 78.2662 88.4429 77.1424 88.0795 76.3407C87.7249 75.539 87.2188 75.1382 86.5613 75.1382C85.9125 75.1382 85.4065 75.539 85.0431 76.3407C84.6885 77.1424 84.5111 78.2662 84.5111 79.7121C84.5111 81.158 84.6885 82.2818 85.0431 83.0835C85.4065 83.8852 85.9125 84.286 86.5613 84.286Z" fill="#CAFF58"/>
<path d="M74.6467 86.1541V73.2699H76.0741V74.2362H76.4634C76.6624 73.821 76.9175 73.4989 77.229 73.2699C77.5404 73.0408 77.8821 72.9263 78.2541 72.9263C78.7991 72.9263 79.2705 73.1267 79.6685 73.5275C80.0664 73.9284 80.3778 74.4939 80.6028 75.224C80.8277 75.9541 80.9401 76.813 80.9401 77.8008V86.1541H79.5128V78.445C79.5128 77.3713 79.3657 76.5625 79.0716 76.0185C78.7861 75.4602 78.3622 75.181 77.7999 75.181C77.2376 75.181 76.8094 75.4602 76.5153 76.0185C76.2212 76.5625 76.0741 77.3713 76.0741 78.445V86.1541H74.6467Z" fill="#CAFF58"/>
<path d="M71.7116 73.2701V86.1544H70.2843V85.1881H69.895C69.696 85.6033 69.4408 85.9254 69.1294 86.1544C68.8266 86.3835 68.4849 86.498 68.1043 86.498C67.5679 86.498 67.0965 86.2976 66.6899 85.8967C66.2919 85.4959 65.9805 84.9304 65.7556 84.2003C65.5307 83.4702 65.4182 82.6112 65.4182 81.6234V73.2701H66.8456V80.9792C66.8456 82.0529 66.9883 82.8689 67.2738 83.4272C67.5679 83.9712 67.9961 84.2432 68.5584 84.2432C69.1207 84.2432 69.5489 83.9712 69.8431 83.4272C70.1372 82.8689 70.2843 82.0529 70.2843 80.9792V73.2701H71.7116Z" fill="#CAFF58"/>
<path d="M59.5504 86.4977C58.8324 86.4977 58.2096 86.2257 57.6819 85.6817C57.1542 85.1234 56.7433 84.336 56.4491 83.3196C56.1637 82.3032 56.0209 81.1006 56.0209 79.712C56.0209 78.3233 56.1637 77.1208 56.4491 76.1044C56.7433 75.088 57.1542 74.3078 57.6819 73.7637C58.2096 73.2054 58.8324 72.9263 59.5504 72.9263C60.2771 72.9263 60.9 73.2054 61.419 73.7637C61.9467 74.3078 62.3533 75.088 62.6388 76.1044C62.9329 77.1208 63.0799 78.3233 63.0799 79.712C63.0799 81.1006 62.9329 82.3032 62.6388 83.3196C62.3533 84.336 61.9467 85.1234 61.419 85.6817C60.9 86.2257 60.2771 86.4977 59.5504 86.4977ZM59.5504 84.2859C60.2165 84.2859 60.7356 83.8851 61.1076 83.0834C61.4796 82.2817 61.6655 81.1579 61.6655 79.712C61.6655 78.2661 61.4796 77.1423 61.1076 76.3406C60.7356 75.5389 60.2165 75.1381 59.5504 75.1381C58.8843 75.1381 58.3653 75.5389 57.9933 76.3406C57.6213 77.1423 57.4353 78.2661 57.4353 79.712C57.4353 81.1579 57.6213 82.2817 57.9933 83.0834C58.3653 83.8851 58.8843 84.2859 59.5504 84.2859Z" fill="#CAFF58"/>
<path d="M47.1558 73.2699H50.1922V74.2147H50.5815C50.7372 73.7995 50.9491 73.4846 51.2173 73.2699C51.4855 73.0408 51.7926 72.9263 52.1386 72.9263C52.7615 72.9263 53.2546 73.2913 53.6179 74.0214C53.9812 74.7372 54.1629 75.725 54.1629 76.9848V78.853H52.6836V77.3284C52.6836 75.8825 52.3289 75.1595 51.6196 75.1595C51.1697 75.1595 50.8324 75.496 50.6074 76.1688C50.3912 76.8273 50.283 77.8151 50.283 79.1322V83.9423H52.6966V86.1541H47.3894V83.9423H48.8557V75.4817H47.1558V73.2699Z" fill="#CAFF58"/>
<path d="M44.597 80.7984C44.597 81.8291 44.4585 82.7239 44.1817 83.4826C43.9135 84.2413 43.5243 84.8283 43.0139 85.2435C42.5121 85.6586 41.9066 85.8662 41.1972 85.8662C40.5398 85.8662 39.9645 85.6944 39.4714 85.3508C38.9783 85.0216 38.589 84.542 38.3035 83.9121C38.0181 83.2965 37.8623 82.5664 37.8364 81.7218H39.1989C39.3373 82.366 39.5795 82.8599 39.9255 83.2034C40.2716 83.547 40.6955 83.7188 41.1972 83.7188C41.8201 83.7188 42.3045 83.4468 42.6505 82.9028C42.9966 82.3731 43.1696 81.6215 43.1696 80.6481V79.2737H42.7803C42.6073 79.6889 42.3564 80.0182 42.0277 80.2615C41.699 80.5049 41.3443 80.6266 40.9636 80.6266C40.3321 80.6266 39.7828 80.3761 39.3157 79.875C38.8485 79.3596 38.4895 78.6295 38.2387 77.6847C37.9878 76.7398 37.8623 75.6304 37.8623 74.3562C37.8623 73.0535 37.9878 71.9297 38.2387 70.9849C38.4895 70.0257 38.8485 69.2884 39.3157 68.7731C39.7828 68.2577 40.3321 68 40.9636 68C41.3529 68 41.7119 68.1288 42.0407 68.3865C42.3694 68.6442 42.6159 68.9878 42.7803 69.4173H43.1696V68.3436H44.597V80.7984ZM39.2767 74.3562C39.2767 75.659 39.4498 76.6754 39.7958 77.4055C40.1505 78.1356 40.6392 78.5007 41.2621 78.5007C41.8936 78.5007 42.3824 78.1356 42.7284 77.4055C43.0831 76.6754 43.2604 75.659 43.2604 74.3562C43.2604 73.0535 43.0831 72.0371 42.7284 71.307C42.3824 70.5769 41.8936 70.2118 41.2621 70.2118C40.6392 70.2118 40.1505 70.5769 39.7958 71.307C39.4498 72.0371 39.2767 73.0535 39.2767 74.3562Z" fill="#CAFF58"/>
<path d="M34.1616 86.1542L30.8267 79.8839L34.2783 73.27H36.082L32.6433 79.798L36.0431 86.1542H34.1616ZM29.8275 86.1542V67.9445H31.2549V86.1542H29.8275Z" fill="#CAFF58"/>
<path d="M23.3889 86.4977C22.6795 86.4977 22.0653 86.2257 21.5462 85.6817C21.0272 85.1377 20.6249 84.3646 20.3395 83.3625C20.054 82.3461 19.9113 81.1507 19.9113 79.7764C19.9113 78.3735 20.0583 77.1638 20.3524 76.1473C20.6466 75.1166 21.0618 74.3221 21.5981 73.7637C22.1431 73.2054 22.7833 72.9263 23.5186 72.9263C24.1588 72.9263 24.7211 73.1482 25.2055 73.592C25.69 74.0214 26.0706 74.637 26.3474 75.4387C26.6242 76.2261 26.7756 77.1638 26.8016 78.2518H25.491C25.3785 77.264 25.145 76.4981 24.7903 75.9541C24.4442 75.4101 24.0031 75.1381 23.4667 75.1381C22.7833 75.1381 22.2556 75.5461 21.8836 76.3621C21.5116 77.1781 21.3257 78.3162 21.3257 79.7764C21.3257 81.1937 21.5073 82.3032 21.8706 83.1048C22.234 83.8922 22.74 84.2859 23.3889 84.2859C23.8733 84.2859 24.2799 84.0497 24.6086 83.5773C24.946 83.0905 25.1796 82.4177 25.3093 81.5587H26.6199C26.5767 82.5608 26.4123 83.4341 26.1268 84.1785C25.8413 84.9086 25.4607 85.4813 24.9849 85.8964C24.5178 86.2973 23.9858 86.4977 23.3889 86.4977Z" fill="#CAFF58"/>
<path d="M15.8862 78.1015V80.1844L13.5505 80.7857C13.1871 80.8859 12.9147 81.0935 12.733 81.4084C12.56 81.7234 12.4735 82.1385 12.4735 82.6539C12.4735 83.1406 12.5816 83.5343 12.7979 83.835C13.0228 84.1356 13.3083 84.2859 13.6543 84.2859C14.0349 84.2859 14.381 84.1356 14.6924 83.835C15.0125 83.5343 15.2677 83.1335 15.458 82.6324C15.6483 82.1171 15.7434 81.5516 15.7434 80.936V77.7793C15.7434 76.949 15.5921 76.2977 15.2893 75.8252C14.9865 75.3528 14.5713 75.1166 14.0436 75.1166C13.6716 75.1166 13.3385 75.2168 13.0444 75.4172C12.7503 75.6177 12.5081 75.9111 12.3177 76.2977C12.1361 76.6842 12.0106 77.1566 11.9414 77.7149H10.5789C10.6222 76.7271 10.7909 75.8753 11.085 75.1595C11.3878 74.4438 11.7944 73.8926 12.3048 73.5061C12.8152 73.1195 13.4077 72.9263 14.0825 72.9263C15.0514 72.9263 15.7997 73.3343 16.3274 74.1503C16.8637 74.9663 17.1319 76.1259 17.1319 77.629V86.1541H15.7434V84.9731H15.3542C15.1465 85.4598 14.874 85.832 14.5367 86.0897C14.2079 86.3474 13.8014 86.4762 13.3169 86.4762C12.8411 86.4762 12.4259 86.3259 12.0712 86.0253C11.7252 85.7103 11.4527 85.2737 11.2537 84.7154C11.0634 84.1571 10.9682 83.5057 10.9682 82.7613C10.9682 81.6876 11.1759 80.8072 11.5911 80.12C12.0063 79.4185 12.5989 78.9676 13.3688 78.7671L15.8862 78.1015Z" fill="#CAFF58"/>
<path d="M5.58057 86.4978C5.16533 86.4978 4.7847 86.3618 4.43867 86.0898C4.09264 85.8035 3.83312 85.4313 3.6601 84.9732H3.27082V86.1542H1.84344V67.9445H3.27082V74.451H3.6601C3.83312 73.9786 4.09264 73.6064 4.43867 73.3344C4.7847 73.0624 5.16533 72.9264 5.58057 72.9264C6.22937 72.9264 6.79167 73.2055 7.26746 73.7639C7.74325 74.3079 8.11091 75.0881 8.37043 76.1045C8.62995 77.1209 8.75971 78.3235 8.75971 79.7121C8.75971 81.1007 8.62995 82.3033 8.37043 83.3197C8.11091 84.3361 7.74325 85.1235 7.26746 85.6818C6.79167 86.2258 6.22937 86.4978 5.58057 86.4978ZM5.28212 84.286C5.93092 84.286 6.43266 83.8852 6.78735 83.0835C7.15068 82.2818 7.33234 81.158 7.33234 79.7121C7.33234 78.2662 7.15068 77.1424 6.78735 76.3407C6.43266 75.539 5.93092 75.1382 5.28212 75.1382C4.62466 75.1382 4.11427 75.539 3.75093 76.3407C3.39625 77.1424 3.21891 78.2662 3.21891 79.7121C3.21891 81.158 3.39625 82.2818 3.75093 83.0835C4.11427 83.8852 4.62466 84.286 5.28212 84.286Z" fill="#CAFF58"/>
<path d="M13 19L1 1" stroke="#CAFF58" stroke-width="1.5"/>
<path d="M32 19L44 1" stroke="#CAFF58" stroke-width="1.5"/>
<path d="M63 19L75 1" stroke="#CAFF58" stroke-width="1.5"/>
<path d="M1 62L13 44" stroke="#CAFF58" stroke-width="1.5"/>
<path d="M32 62L44 44" stroke="#CAFF58" stroke-width="1.5"/>
<path d="M75 62L63 44" stroke="#CAFF58" stroke-width="1.5"/>
</svg>
