<svg width="77" height="86" viewBox="0 0 77 86" fill="none" xmlns="http://www.w3.org/2000/svg">
<g clip-path="url(#clip0_252_309)">
<path d="M18.5465 35C8.31994 35 0 27.1493 0 17.5006C0 7.85185 8.31994 0 18.5465 0C28.7731 0 37.0931 7.85072 37.0931 17.5006C37.0931 27.1504 28.7731 35.0011 18.5465 35.0011V35ZM18.5465 1.69197C9.30853 1.69197 1.79309 8.78356 1.79309 17.5006C1.79309 26.2176 9.30853 33.3092 18.5465 33.3092C27.7845 33.3092 35.3 26.2176 35.3 17.5006C35.3 8.78356 27.7834 1.69197 18.5465 1.69197Z" fill="#CAFF58"/>
<path d="M42.7987 13.3755V0.827841H44.4603V1.84415H44.8823C45.0843 1.40198 45.3437 1.06584 45.6605 0.837993C45.9773 0.610141 46.3287 0.496216 46.716 0.496216C47.2695 0.496216 47.7428 0.690228 48.1337 1.07712C48.5246 1.46402 48.833 2.01786 49.0566 2.73638C49.2813 3.45603 49.3925 4.30539 49.3925 5.28786V13.3766H47.7309V5.97142C47.7309 4.97541 47.5922 4.22644 47.3149 3.7211C47.0376 3.2169 46.6359 2.96423 46.1087 2.96423C45.5816 2.96423 45.1632 3.2169 44.8823 3.7211C44.6014 4.22644 44.4603 4.97541 44.4603 5.97142V13.3755H42.7987Z" fill="#CAFF58"/>
<path d="M55.2607 13.7274C54.5136 13.7274 53.8645 13.4579 53.3158 12.9187C52.7659 12.3795 52.3403 11.6159 52.0367 10.6266C51.7331 9.63853 51.5813 8.46656 51.5813 7.11073C51.5813 5.7549 51.7331 4.58068 52.0367 3.58468C52.3403 2.58867 52.7659 1.82503 53.3158 1.29263C53.8657 0.760221 54.5136 0.494019 55.2607 0.494019C56.0078 0.494019 56.6677 0.760221 57.2128 1.29263C57.7579 1.82503 58.1822 2.58867 58.4859 3.58468C58.7895 4.58068 58.9413 5.75603 58.9413 7.11073C58.9413 8.46543 58.7895 9.6374 58.4859 10.6266C58.1822 11.6159 57.7579 12.3795 57.2128 12.9187C56.6677 13.4579 56.0174 13.7274 55.2607 13.7274ZM55.2607 11.3226C55.911 11.3226 56.4142 10.9526 56.7705 10.2127C57.1267 9.47272 57.3048 8.43949 57.3048 7.11186C57.3048 5.78423 57.1267 4.7307 56.7705 3.99075C56.4142 3.25079 55.911 2.88082 55.2607 2.88082C54.6104 2.88082 54.1179 3.25079 53.7569 3.99075C53.3959 4.7307 53.2166 5.77069 53.2166 7.11186C53.2166 8.45302 53.3971 9.47272 53.7569 10.2127C54.1179 10.9526 54.6188 11.3226 55.2607 11.3226Z" fill="#CAFF58"/>
<path d="M47.7177 26.4126V28.5908L45.4895 29.1299C45.1465 29.2134 44.8871 29.3961 44.7113 29.6793C44.5356 29.9624 44.4471 30.3403 44.4471 30.8095C44.4471 31.2517 44.5523 31.6081 44.7639 31.8777C44.9755 32.1473 45.2433 32.2815 45.5684 32.2815C45.9462 32.2815 46.2869 32.1462 46.5905 31.8777C46.8941 31.6081 47.1356 31.2483 47.3161 30.7993C47.4966 30.3504 47.5863 29.8485 47.5863 29.2958V26.2051C47.5863 25.4313 47.4416 24.829 47.1511 24.4003C46.8606 23.9717 46.4614 23.7574 45.951 23.7574C45.5899 23.7574 45.2672 23.851 44.9815 24.0371C44.6958 24.2232 44.4651 24.4928 44.2894 24.8459C44.1136 25.1978 43.9953 25.631 43.9331 26.1419H42.3504C42.3947 25.1606 42.5704 24.3169 42.8776 23.6119C43.1848 22.9069 43.6032 22.3643 44.1304 21.9842C44.6575 21.6041 45.2732 21.4135 45.9761 21.4135C47.0041 21.4135 47.7978 21.8105 48.3561 22.6057C48.9143 23.4009 49.1941 24.5379 49.1941 26.0179V34.2927H47.5851V33.1309H47.1499C46.9658 33.6012 46.7076 33.9645 46.3789 34.2194C46.0502 34.4743 45.6378 34.6029 45.1465 34.6029C44.6551 34.6029 44.2403 34.4506 43.8805 34.1472C43.5195 33.8438 43.2386 33.4185 43.0366 32.8714C42.8346 32.3255 42.733 31.6927 42.733 30.9742C42.733 29.924 42.9457 29.0589 43.3725 28.3821C43.7992 27.7053 44.4125 27.262 45.2122 27.0545L47.7177 26.4115V26.4126Z" fill="#CAFF58"/>
<path d="M54.6008 34.6255C53.941 34.6255 53.372 34.3559 52.8926 33.8167C52.4133 33.2776 52.0403 32.5139 51.7713 31.5247C51.5036 30.5366 51.3697 29.3714 51.3697 28.0302C51.3697 26.689 51.5036 25.5035 51.7713 24.5143C52.0391 23.5262 52.4133 22.7614 52.8926 22.2223C53.372 21.6831 53.941 21.4135 54.6008 21.4135C55.0228 21.4135 55.4053 21.5455 55.7484 21.8072C56.0915 22.07 56.3461 22.4366 56.5135 22.9069H56.9354V16.7053H58.597V34.2927H56.9354V33.1309H56.5135C56.3557 33.5731 56.1046 33.9329 55.7616 34.2093C55.4185 34.4856 55.0312 34.6244 54.6008 34.6244V34.6255ZM55.0096 32.2195C55.6516 32.2195 56.1453 31.8529 56.4931 31.1209C56.8398 30.3877 57.0143 29.3578 57.0143 28.0302C57.0143 26.7026 56.841 25.6694 56.4931 24.9294C56.1453 24.1894 55.6516 23.8195 55.0096 23.8195C54.3677 23.8195 53.886 24.1861 53.5393 24.9181C53.1915 25.6513 53.0181 26.6879 53.0181 28.0291C53.0181 29.3702 53.1915 30.3866 53.5393 31.1197C53.886 31.8529 54.3773 32.2184 55.0096 32.2184V32.2195Z" fill="#CAFF58"/>
<path d="M62.7905 30.4361C62.9052 31.0306 63.1156 31.4874 63.424 31.8055C63.7312 32.1236 64.1233 32.2826 64.5979 32.2826C65.0988 32.2826 65.4837 32.1473 65.7515 31.8788C66.0192 31.6092 66.1531 31.2257 66.1531 30.7271C66.1531 30.3673 66.0491 30.0774 65.8435 29.8563C65.6367 29.6352 65.3223 29.4762 64.9003 29.3792L63.8723 29.1716C62.9925 28.9641 62.3422 28.5569 61.9202 27.9478C61.4983 27.3398 61.2867 26.4893 61.2867 25.3963C61.2867 24.1521 61.5771 23.1776 62.1569 22.4726C62.7367 21.7676 63.5376 21.4146 64.5573 21.4146C65.5769 21.4146 66.4388 21.8014 67.0365 22.5764C67.6342 23.3513 67.9546 24.4499 67.9988 25.8734H66.4687C66.3456 25.1967 66.1232 24.6744 65.8029 24.3078C65.4813 23.9412 65.0581 23.7585 64.5298 23.7585C64.0014 23.7585 63.6105 23.8972 63.3296 24.1736C63.0487 24.4499 62.9076 24.8368 62.9076 25.3354C62.9076 25.6817 63.0104 25.9716 63.2172 26.2062C63.424 26.4408 63.7336 26.5931 64.1472 26.6619L65.1896 26.9112C66.0682 27.0905 66.7197 27.4853 67.1417 28.0933C67.5637 28.7024 67.7753 29.5518 67.7753 30.6448C67.7753 31.4885 67.645 32.207 67.3868 32.8015C67.1274 33.3959 66.7628 33.8528 66.2918 34.1697C65.8208 34.4878 65.2566 34.6468 64.5967 34.6468C63.577 34.6468 62.7773 34.2769 62.1964 33.5369C61.6166 32.797 61.295 31.7637 61.2341 30.4361H62.7905Z" fill="#CAFF58"/>
<path d="M1.53101 0.247691L0.263107 1.44409L35.5616 34.7519L36.8295 33.5555L1.53101 0.247691Z" fill="#CAFF58"/>
<path d="M35.5616 0.248125L0.263107 33.5559L1.53101 34.7523L36.8295 1.44453L35.5616 0.248125Z" fill="#CAFF58"/>
</g>
<path d="M18.3523 85.7933C8.23281 85.7933 0 77.5404 0 67.3973C0 57.2542 8.23281 49 18.3523 49C28.4718 49 36.7046 57.253 36.7046 67.3973C36.7046 77.5415 28.4718 85.7945 18.3523 85.7945V85.7933ZM18.3523 50.7787C9.21105 50.7787 1.77431 58.2336 1.77431 67.3973C1.77431 76.5609 9.21105 84.0159 18.3523 84.0159C27.4936 84.0159 34.9303 76.5609 34.9303 67.3973C34.9303 58.2336 27.4924 50.7787 18.3523 50.7787Z" fill="#CAFF58"/>
<path d="M42.3503 63.0606V49.8701H43.9945V50.9385H44.4121C44.612 50.4737 44.8686 50.1203 45.1821 49.8808C45.4956 49.6412 45.8433 49.5215 46.2266 49.5215C46.7743 49.5215 47.2427 49.7254 47.6295 50.1322C48.0163 50.5389 48.3215 51.1211 48.5427 51.8764C48.765 52.633 48.875 53.5258 48.875 54.5586V63.0618H47.2308V55.2772C47.2308 54.2302 47.0936 53.4428 46.8204 52.9116C46.546 52.3816 46.1485 52.116 45.6269 52.116C45.1052 52.116 44.6912 52.3816 44.4132 52.9116C44.1353 53.4428 43.9957 54.2302 43.9957 55.2772V63.0606H42.3515H42.3503Z" fill="#CAFF58"/>
<path d="M54.6821 63.4305C53.9428 63.4305 53.3005 63.1471 52.7576 62.5803C52.2135 62.0135 51.7924 61.2108 51.4919 60.1708C51.1915 59.1321 51.0412 57.9001 51.0412 56.4748C51.0412 55.0495 51.1915 53.8151 51.4919 52.7681C51.7924 51.721 52.2135 50.9183 52.7576 50.3586C53.3017 49.7989 53.9428 49.519 54.6821 49.519C55.4214 49.519 56.0744 49.7989 56.6138 50.3586C57.1532 50.9183 57.5731 51.721 57.8735 52.7681C58.174 53.8151 58.3242 55.0507 58.3242 56.4748C58.3242 57.8989 58.174 59.1309 57.8735 60.1708C57.5731 61.2108 57.1532 62.0135 56.6138 62.5803C56.0744 63.1471 55.4309 63.4305 54.6821 63.4305ZM54.6821 60.9025C55.3256 60.9025 55.8236 60.5135 56.1761 59.7357C56.5286 58.9578 56.7048 57.8716 56.7048 56.476C56.7048 55.0803 56.5286 53.9728 56.1761 53.1949C55.8236 52.4171 55.3256 52.0281 54.6821 52.0281C54.0386 52.0281 53.5513 52.4171 53.1941 53.1949C52.8368 53.9728 52.6594 55.0661 52.6594 56.476C52.6594 57.8859 52.838 58.9578 53.1941 59.7357C53.5501 60.5135 54.0469 60.9025 54.6821 60.9025Z" fill="#CAFF58"/>
<path d="M45.7429 85.4213C45.0036 85.4213 44.3661 85.1415 43.8314 84.5818C43.2968 84.0221 42.8828 83.2265 42.5918 82.1948C42.3008 81.1632 42.1541 79.9419 42.1541 78.532C42.1541 77.1221 42.3043 75.8474 42.6048 74.7932C42.9052 73.7391 43.3334 72.9292 43.8906 72.3624C44.4477 71.7956 45.1042 71.5122 45.8612 71.5122C46.5225 71.5122 47.1032 71.7411 47.6036 72.1988C48.104 72.6565 48.4979 73.3004 48.7841 74.128C49.0716 74.9569 49.2277 75.9375 49.2537 77.0711H47.7396C47.6261 76.0976 47.4049 75.3458 47.0737 74.8146C46.7425 74.2845 46.3214 74.0189 45.808 74.0189C45.1645 74.0189 44.6594 74.415 44.2939 75.2071C43.9284 75.9992 43.7462 77.1008 43.7462 78.5106C43.7462 79.9205 43.9225 80.9676 44.275 81.7371C44.6275 82.5079 45.1172 82.8932 45.7429 82.8932C46.1948 82.8932 46.5828 82.6644 46.9045 82.2067C47.2263 81.749 47.4486 81.1051 47.5705 80.2774H49.0716C49.0278 81.3102 48.8586 82.2138 48.5629 82.9917C48.2672 83.7695 47.878 84.3695 47.3954 84.7905C46.9128 85.2114 46.3628 85.4225 45.7441 85.4225L45.7429 85.4213Z" fill="#CAFF58"/>
<path d="M56.3524 76.7657V79.0554L54.1475 79.6222C53.808 79.71 53.5513 79.9021 53.3774 80.1997C53.2035 80.4973 53.116 80.8946 53.116 81.3879C53.116 81.8527 53.2201 82.2274 53.4295 82.5108C53.6388 82.7942 53.9038 82.9353 54.2255 82.9353C54.5993 82.9353 54.9365 82.793 55.2369 82.5108C55.5374 82.2274 55.7763 81.8491 55.9549 81.3772C56.1335 80.9052 56.2222 80.3776 56.2222 79.7966V76.5475C56.2222 75.7341 56.0791 75.1009 55.7917 74.6503C55.5042 74.1997 55.1091 73.9744 54.6041 73.9744C54.2468 73.9744 53.9275 74.0728 53.6448 74.2685C53.362 74.4641 53.1337 74.7475 52.9599 75.1187C52.786 75.4886 52.6689 75.944 52.6074 76.4811H51.0412C51.085 75.4495 51.2589 74.5626 51.5629 73.8214C51.8669 73.0803 52.2809 72.51 52.8025 72.1104C53.3242 71.7108 53.9334 71.5104 54.6289 71.5104C55.6474 71.5104 56.4316 71.9278 56.984 72.7637C57.5364 73.5997 57.812 74.795 57.812 76.3507V85.0495H56.2199V83.8282H55.7893C55.6071 84.3226 55.3516 84.7045 55.0263 84.9725C54.7011 85.2404 54.293 85.3756 53.8056 85.3756C53.3183 85.3756 52.909 85.2155 52.553 84.8966C52.1957 84.5776 51.9178 84.1306 51.7178 83.5555C51.5179 82.9815 51.4174 82.3163 51.4174 81.561C51.4174 80.457 51.628 79.5475 52.0502 78.8361C52.4725 78.1246 53.0793 77.6586 53.8707 77.4404L56.35 76.7645L56.3524 76.7657Z" fill="#CAFF58"/>
<path d="M62.1331 80.9952C62.2466 81.6201 62.4548 82.1003 62.76 82.4347C63.064 82.7691 63.452 82.9363 63.9216 82.9363C64.4172 82.9363 64.7981 82.794 65.0631 82.5118C65.328 82.2284 65.4617 81.8252 65.4617 81.3011C65.4617 80.9228 65.3588 80.6181 65.1553 80.3857C64.9507 80.1533 64.6396 79.9861 64.222 79.8841L63.2048 79.6659C62.3342 79.4477 61.6907 79.0197 61.2731 78.3793C60.8556 77.7402 60.6462 76.8461 60.6462 75.6971C60.6462 74.3892 60.9336 73.3647 61.5073 72.6236C62.081 71.8825 62.8736 71.5114 63.8825 71.5114C64.8915 71.5114 65.7444 71.9181 66.3358 72.7327C66.9273 73.5473 67.2443 74.7023 67.288 76.1987H65.774C65.6521 75.4872 65.4321 74.9382 65.1151 74.5529C64.7969 74.1675 64.3782 73.9754 63.8553 73.9754C63.3325 73.9754 62.9457 74.1212 62.6677 74.4118C62.3898 74.7023 62.2502 75.109 62.2502 75.6331C62.2502 75.9971 62.3519 76.3019 62.5565 76.5485C62.7612 76.7952 63.0675 76.9552 63.4768 77.0276L64.5071 77.2896C65.3765 77.4782 66.0212 77.8932 66.4387 78.5323C66.8563 79.1726 67.0657 80.0655 67.0657 81.2145C67.0657 82.1015 66.9367 82.8568 66.6812 83.4817C66.4245 84.1066 66.0638 84.5869 65.5977 84.9201C65.1317 85.2545 64.5733 85.4216 63.9204 85.4216C62.9114 85.4216 62.1201 85.0327 61.5452 84.2548C60.9715 83.477 60.6533 82.3908 60.593 80.9952H62.1331Z" fill="#CAFF58"/>
<path d="M69.7543 85.0505V66.5619H71.3985V72.9283H71.8161C72.016 72.4635 72.2726 72.1101 72.5861 71.8706C72.8996 71.6311 73.2473 71.5113 73.6306 71.5113C74.1782 71.5113 74.6467 71.7153 75.0335 72.122C75.4203 72.5287 75.7255 73.1109 75.9466 73.8662C76.169 74.6216 76.279 75.5157 76.279 76.5485V85.0516H74.6348V77.2682C74.6348 76.2212 74.4976 75.4338 74.2244 74.9026C73.95 74.3726 73.5525 74.107 73.0309 74.107C72.5092 74.107 72.0952 74.3726 71.8172 74.9026C71.5393 75.4338 71.3997 76.2212 71.3997 77.2682V85.0516H69.7555L69.7543 85.0505Z" fill="#CAFF58"/>
<path d="M1.51482 49.2604L0.260193 50.5181L35.189 85.5325L36.4437 84.2748L1.51482 49.2604Z" fill="#CAFF58"/>
<path d="M35.189 49.2611L0.260193 84.2755L1.51482 85.5332L36.4437 50.5188L35.189 49.2611Z" fill="#CAFF58"/>
<defs>
<clipPath id="clip0_252_309">
<rect width="68" height="35" fill="white"/>
</clipPath>
</defs>
</svg>
