<svg width="68" height="86" viewBox="0 0 68 86" fill="none" xmlns="http://www.w3.org/2000/svg">
<path d="M18.5233 23.552C18.6593 23.992 18.8913 24.328 19.2193 24.56C19.5473 24.792 19.9673 24.908 20.4793 24.908C21.0393 24.908 21.4793 24.768 21.7993 24.488C22.1193 24.208 22.2793 23.82 22.2793 23.324C22.2793 22.964 22.1593 22.668 21.9193 22.436C21.6873 22.196 21.3513 22.044 20.9113 21.98L19.8553 21.824C19.0233 21.68 18.3953 21.38 17.9713 20.924C17.5473 20.468 17.3353 19.856 17.3353 19.088C17.3353 18.504 17.4673 18 17.7313 17.576C18.0033 17.144 18.3793 16.808 18.8593 16.568C19.3473 16.328 19.9113 16.208 20.5513 16.208C21.1913 16.208 21.7513 16.324 22.2313 16.556C22.7113 16.788 23.0873 17.12 23.3593 17.552C23.6393 17.976 23.7993 18.488 23.8393 19.088H22.5433C22.4153 18.576 22.1833 18.184 21.8473 17.912C21.5113 17.632 21.0793 17.492 20.5513 17.492C19.9673 17.492 19.5073 17.636 19.1713 17.924C18.8433 18.204 18.6793 18.592 18.6793 19.088C18.6793 19.456 18.7953 19.756 19.0273 19.988C19.2673 20.22 19.6033 20.372 20.0353 20.444L21.0913 20.6C21.9313 20.736 22.5633 21.036 22.9873 21.5C23.4113 21.956 23.6233 22.564 23.6233 23.324C23.6233 23.908 23.4913 24.416 23.2273 24.848C22.9713 25.272 22.6073 25.604 22.1353 25.844C21.6633 26.076 21.1113 26.192 20.4793 26.192C19.8393 26.192 19.2793 26.088 18.7993 25.88C18.3273 25.664 17.9513 25.36 17.6713 24.968C17.3993 24.568 17.2473 24.096 17.2153 23.552H18.5233ZM26.2537 16.4H27.6217V26H26.2537V16.4ZM30.5857 26L27.2137 21.356L30.8017 16.4H32.3857L28.8337 21.296L32.2537 26H30.5857ZM34.116 26V24.716H36.516V17.684H34.116V16.4H40.284V17.684H37.884V24.716H40.284V26H34.116ZM42.9623 26V16.4H46.2503C46.8583 16.4 47.3863 16.516 47.8343 16.748C48.2823 16.98 48.6303 17.308 48.8783 17.732C49.1263 18.148 49.2503 18.644 49.2503 19.22C49.2503 19.796 49.1263 20.296 48.8783 20.72C48.6303 21.136 48.2823 21.46 47.8343 21.692C47.3863 21.916 46.8583 22.028 46.2503 22.028H44.3303V26H42.9623ZM44.3303 20.804H46.2983C46.7863 20.804 47.1703 20.664 47.4503 20.384C47.7383 20.104 47.8823 19.724 47.8823 19.244C47.8823 18.764 47.7383 18.384 47.4503 18.104C47.1703 17.824 46.7863 17.684 46.2983 17.684H44.3303V20.804Z" fill="#CAFF58"/>
<path d="M62.2715 85.336C61.4331 85.336 60.7066 85.07 60.0918 84.538C59.4882 83.992 59.0131 83.222 58.6666 82.228C58.3312 81.234 58.1636 80.058 58.1636 78.7C58.1636 77.342 58.3312 76.166 58.6666 75.172C59.0131 74.178 59.4882 73.415 60.0918 72.883C60.7066 72.337 61.4331 72.064 62.2715 72.064C62.8192 72.064 63.3166 72.197 63.7638 72.463C64.2109 72.729 64.5406 73.093 64.753 73.555H65.256V67.192H67.1004V85H65.256V83.845H64.753C64.5406 84.293 64.2109 84.657 63.7638 84.937C63.3166 85.203 62.8192 85.336 62.2715 85.336ZM62.6571 83.173C63.5067 83.173 64.1606 82.781 64.6189 81.997C65.0883 81.213 65.3231 80.114 65.3231 78.7C65.3231 77.286 65.0883 76.187 64.6189 75.403C64.1606 74.619 63.5067 74.227 62.6571 74.227C61.8188 74.227 61.1649 74.619 60.6954 75.403C60.2371 76.187 60.0079 77.286 60.0079 78.7C60.0079 80.114 60.2371 81.213 60.6954 81.997C61.1649 82.781 61.8188 83.173 62.6571 83.173Z" fill="#CAFF58"/>
<path d="M48.3684 77.419H54.4213L53.8009 78.511C53.8009 77.097 53.5997 76.019 53.1973 75.277C52.7949 74.535 52.208 74.164 51.4367 74.164C50.5984 74.164 49.9445 74.556 49.475 75.34C49.0055 76.11 48.7708 77.195 48.7708 78.595C48.7708 80.093 49.0055 81.241 49.475 82.039C49.9445 82.837 50.6152 83.236 51.487 83.236C52.0571 83.236 52.5545 83.061 52.9793 82.711C53.4041 82.347 53.7618 81.822 54.0524 81.136H55.7794C55.6117 82.004 55.3267 82.753 54.9243 83.383C54.533 84.013 54.0412 84.496 53.4488 84.832C52.8675 85.168 52.2136 85.336 51.487 85.336C50.5481 85.336 49.7377 85.07 49.0558 84.538C48.3851 84.006 47.871 83.236 47.5133 82.228C47.1556 81.22 46.9767 80.009 46.9767 78.595C46.9767 77.251 47.1556 76.096 47.5133 75.13C47.8821 74.15 48.4019 73.394 49.0726 72.862C49.7433 72.33 50.5313 72.064 51.4367 72.064C52.2974 72.064 53.0296 72.316 53.6332 72.82C54.2368 73.324 54.7007 74.059 55.0249 75.025C55.349 75.977 55.5111 77.132 55.5111 78.49C55.5111 78.644 55.5055 78.805 55.4944 78.973C55.4944 79.141 55.4888 79.302 55.4776 79.456H48.3684V77.419Z" fill="#CAFF58"/>
<path d="M38.7911 85.336C37.9528 85.336 37.2262 85.07 36.6114 84.538C36.0078 83.992 35.5327 83.222 35.1862 82.228C34.8509 81.234 34.6832 80.058 34.6832 78.7C34.6832 77.342 34.8509 76.166 35.1862 75.172C35.5327 74.178 36.0078 73.415 36.6114 72.883C37.2262 72.337 37.9528 72.064 38.7911 72.064C39.3389 72.064 39.8363 72.197 40.2834 72.463C40.7305 72.729 41.0603 73.093 41.2726 73.555H41.7757V67.192H43.62V85H41.7757V83.845H41.2726C41.0603 84.293 40.7305 84.657 40.2834 84.937C39.8363 85.203 39.3389 85.336 38.7911 85.336ZM39.1768 83.173C40.0263 83.173 40.6802 82.781 41.1385 81.997C41.608 81.213 41.8427 80.114 41.8427 78.7C41.8427 77.286 41.608 76.187 41.1385 75.403C40.6802 74.619 40.0263 74.227 39.1768 74.227C38.3384 74.227 37.6845 74.619 37.215 75.403C36.7567 76.187 36.5276 77.286 36.5276 78.7C36.5276 80.114 36.7567 81.213 37.215 81.997C37.6845 82.781 38.3384 83.173 39.1768 83.173Z" fill="#CAFF58"/>
<path d="M31.729 72.4V85H29.8846V84.055H29.3816C29.1245 84.461 28.7948 84.776 28.3923 85C28.0011 85.224 27.5596 85.336 27.0678 85.336C26.3747 85.336 25.7655 85.14 25.2402 84.748C24.726 84.356 24.3236 83.803 24.0329 83.089C23.7423 82.375 23.597 81.535 23.597 80.569V72.4H25.4414V79.939C25.4414 80.989 25.6258 81.787 25.9947 82.333C26.3747 82.865 26.928 83.131 27.6546 83.131C28.3812 83.131 28.9345 82.865 29.3145 82.333C29.6946 81.787 29.8846 80.989 29.8846 79.939V72.4H31.729Z" fill="#CAFF58"/>
<path d="M12.3262 67.192H17.2222V82.837H20.257V85H12.3262V82.837H15.3778V69.355H12.3262V67.192Z" fill="#CAFF58"/>
<path d="M4.50955 85.336C3.59295 85.336 2.79931 85.07 2.12863 84.538C1.45795 84.006 0.938176 83.25 0.569302 82.27C0.200428 81.276 0.0159912 80.107 0.0159912 78.763C0.0159912 77.391 0.206017 76.208 0.586069 75.214C0.966121 74.206 1.50267 73.429 2.1957 72.883C2.89992 72.337 3.72709 72.064 4.67722 72.064C5.50439 72.064 6.23096 72.281 6.85693 72.715C7.4829 73.135 7.97473 73.737 8.33242 74.521C8.69012 75.291 8.88574 76.208 8.91927 77.272H7.2258C7.08049 76.306 6.77868 75.557 6.32039 75.025C5.87326 74.493 5.30319 74.227 4.61015 74.227C3.72709 74.227 3.04523 74.626 2.56458 75.424C2.08392 76.222 1.84359 77.335 1.84359 78.763C1.84359 80.149 2.07833 81.234 2.54781 82.018C3.01728 82.788 3.6712 83.173 4.50955 83.173C5.13552 83.173 5.66088 82.942 6.08565 82.48C6.52159 82.004 6.8234 81.346 6.99107 80.506H8.68453C8.62864 81.486 8.41626 82.34 8.04739 83.068C7.67851 83.782 7.18668 84.342 6.57189 84.748C5.96828 85.14 5.28083 85.336 4.50955 85.336Z" fill="#CAFF58"/>
<path d="M59.0019 63V50.4H60.8463V51.345H61.3493C61.6064 50.939 61.9361 50.624 62.3385 50.4C62.7409 50.176 63.1825 50.064 63.6631 50.064C64.3673 50.064 64.9765 50.26 65.4907 50.652C66.0049 51.044 66.4073 51.597 66.6979 52.311C66.9886 53.025 67.1339 53.865 67.1339 54.831V63H65.2895V55.461C65.2895 54.411 65.0995 53.62 64.7194 53.088C64.3506 52.542 63.8028 52.269 63.0763 52.269C62.3497 52.269 61.7964 52.542 61.4163 53.088C61.0363 53.62 60.8463 54.411 60.8463 55.461V63H59.0019Z" fill="#CAFF58"/>
<path d="M47.7983 50.4H52.6942V60.837H55.7291V63H47.7983V60.837H50.8499V52.563H47.7983V50.4ZM51.6379 48.531C51.202 48.531 50.861 48.384 50.6151 48.09C50.3692 47.782 50.2463 47.362 50.2463 46.83C50.2463 46.298 50.3692 45.885 50.6151 45.591C50.861 45.283 51.202 45.129 51.6379 45.129C52.0739 45.129 52.4148 45.283 52.6607 45.591C52.9066 45.885 53.0296 46.298 53.0296 46.83C53.0296 47.362 52.9066 47.782 52.6607 48.09C52.4148 48.384 52.0739 48.531 51.6379 48.531Z" fill="#CAFF58"/>
<path d="M23.7814 63V50.4H25.6258V51.345H26.1288C26.3859 50.939 26.7156 50.624 27.118 50.4C27.5204 50.176 27.962 50.064 28.4426 50.064C29.1468 50.064 29.756 50.26 30.2702 50.652C30.7844 51.044 31.1868 51.597 31.4774 52.311C31.7681 53.025 31.9134 53.865 31.9134 54.831V63H30.069V55.461C30.069 54.411 29.879 53.62 29.4989 53.088C29.1301 52.542 28.5823 52.269 27.8558 52.269C27.1292 52.269 26.5759 52.542 26.1958 53.088C25.8158 53.62 25.6258 54.411 25.6258 55.461V63H23.7814Z" fill="#CAFF58"/>
<path d="M15.5623 47.124V50.4H20.0894V52.563H15.5623V58.863C15.5623 59.605 15.6852 60.179 15.9312 60.585C16.1771 60.977 16.5348 61.173 17.0042 61.173C17.4961 61.173 17.8761 60.963 18.1444 60.543C18.4238 60.109 18.6306 59.458 18.7648 58.59H20.3912C20.3353 60.13 20.0111 61.306 19.4187 62.118C18.8263 62.93 17.9991 63.336 16.9372 63.336C15.9088 63.336 15.1152 62.951 14.5563 62.181C13.9974 61.411 13.7179 60.333 13.7179 58.947V52.563H11.5047V50.4H13.7179V47.124H15.5623Z" fill="#CAFF58"/>
<path d="M4.97905 63.336C4.44251 63.336 3.95067 63.203 3.50355 62.937C3.05643 62.657 2.72109 62.293 2.49753 61.845H1.99452V63H0.150154V45.192H1.99452V51.555H2.49753C2.72109 51.093 3.05643 50.729 3.50355 50.463C3.95067 50.197 4.44251 50.064 4.97905 50.064C5.8174 50.064 6.54397 50.337 7.15876 50.883C7.77355 51.415 8.24862 52.178 8.58396 53.172C8.9193 54.166 9.08697 55.342 9.08697 56.7C9.08697 58.058 8.9193 59.234 8.58396 60.228C8.24862 61.222 7.77355 61.992 7.15876 62.538C6.54397 63.07 5.8174 63.336 4.97905 63.336ZM4.59341 61.173C5.43176 61.173 6.08008 60.781 6.53838 59.997C7.00786 59.213 7.2426 58.114 7.2426 56.7C7.2426 55.286 7.00786 54.187 6.53838 53.403C6.08008 52.619 5.43176 52.227 4.59341 52.227C3.74388 52.227 3.08438 52.619 2.6149 53.403C2.15661 54.187 1.92746 55.286 1.92746 56.7C1.92746 58.114 2.15661 59.213 2.6149 59.997C3.08438 60.781 3.74388 61.173 4.59341 61.173Z" fill="#CAFF58"/>
<rect x="0.5" y="0.5" width="64" height="37" stroke="#CAFF58"/>
<rect x="3.5" y="3.5" width="64" height="37" stroke="#CAFF58"/>
</svg>
