<svg width="116" height="86" viewBox="0 0 116 86" fill="none" xmlns="http://www.w3.org/2000/svg">
<path d="M116 5.52332V18.0762H114.672V17.1348H114.31C114.125 17.5392 113.887 17.8531 113.598 18.0762C113.316 18.2994 112.998 18.411 112.644 18.411C112.145 18.411 111.706 18.2157 111.328 17.8252C110.958 17.4346 110.668 16.8837 110.459 16.1724C110.249 15.461 110.145 14.6242 110.145 13.6618V5.52332H111.473V13.0341C111.473 14.0802 111.606 14.8752 111.871 15.4192C112.145 15.9492 112.543 16.2142 113.066 16.2142C113.59 16.2142 113.988 15.9492 114.262 15.4192C114.535 14.8752 114.672 14.0802 114.672 13.0341V5.52332H116Z" fill="#CAFF58"/>
<path d="M104.686 18.4109C104.018 18.4109 103.438 18.1459 102.947 17.6159C102.456 17.0719 102.074 16.3048 101.8 15.3145C101.535 14.3242 101.402 13.1526 101.402 11.7997C101.402 10.4468 101.535 9.27515 101.8 8.28486C102.074 7.29458 102.456 6.53443 102.947 6.00442C103.438 5.46046 104.018 5.18848 104.686 5.18848C105.362 5.18848 105.941 5.46046 106.424 6.00442C106.915 6.53443 107.293 7.29458 107.559 8.28486C107.833 9.27515 107.969 10.4468 107.969 11.7997C107.969 13.1526 107.833 14.3242 107.559 15.3145C107.293 16.3048 106.915 17.0719 106.424 17.6159C105.941 18.1459 105.362 18.4109 104.686 18.4109ZM104.686 16.256C105.305 16.256 105.788 15.8654 106.134 15.0844C106.48 14.3033 106.653 13.2084 106.653 11.7997C106.653 10.391 106.48 9.29607 106.134 8.515C105.788 7.73393 105.305 7.34339 104.686 7.34339C104.066 7.34339 103.583 7.73393 103.237 8.515C102.891 9.29607 102.718 10.391 102.718 11.7997C102.718 13.2084 102.891 14.3033 103.237 15.0844C103.583 15.8654 104.066 16.256 104.686 16.256Z" fill="#CAFF58"/>
<path d="M92.8279 5.52332H94.2525L96.1117 14.9171H96.9568L96.5825 17.0302H95.1338L92.8279 5.52332ZM99.649 5.52332L96.9809 19.8964C96.82 20.7472 96.5785 21.4097 96.2566 21.884C95.9346 22.3582 95.5604 22.5953 95.1338 22.5953C94.5221 22.5953 94.0392 22.3024 93.6851 21.7166C93.331 21.1308 93.1298 20.28 93.0815 19.1642H94.2887C94.3853 19.6244 94.4899 19.9592 94.6026 20.1684C94.7233 20.3776 94.8843 20.4822 95.0855 20.4822C95.2626 20.4822 95.4034 20.3846 95.5081 20.1893C95.6207 19.994 95.7213 19.6732 95.8099 19.2269L98.3331 5.52332H99.649Z" fill="#CAFF58"/>
<path d="M77.2617 10.5235H81.6199L81.1732 11.6114C81.1732 10.2027 81.0283 9.1287 80.7386 8.38947C80.4488 7.65024 80.0263 7.28063 79.4709 7.28063C78.8673 7.28063 78.3965 7.67117 78.0585 8.45224C77.7204 9.21936 77.5514 10.3003 77.5514 11.6951C77.5514 13.1875 77.7204 14.3312 78.0585 15.1262C78.3965 15.9212 78.8794 16.3187 79.5072 16.3187C79.9176 16.3187 80.2758 16.1444 80.5816 15.7957C80.8875 15.4331 81.145 14.91 81.3543 14.2266H82.5978C82.477 15.0913 82.2718 15.8375 81.982 16.4652C81.7004 17.0928 81.3462 17.574 80.9197 17.9088C80.5011 18.2435 80.0303 18.4109 79.5072 18.4109C78.8311 18.4109 78.2476 18.1459 77.7566 17.6159C77.2737 17.0859 76.9035 16.3187 76.646 15.3145C76.3884 14.3103 76.2596 13.1038 76.2596 11.6951C76.2596 10.3561 76.3884 9.20541 76.646 8.24302C76.9116 7.26668 77.2858 6.51351 77.7687 5.9835C78.2516 5.45348 78.819 5.18848 79.4709 5.18848C80.0907 5.18848 80.6178 5.43953 81.0525 5.94165C81.4871 6.44377 81.8211 7.17602 82.0545 8.13841C82.2879 9.08686 82.4046 10.2375 82.4046 11.5905C82.4046 11.7439 82.4006 11.9043 82.3925 12.0717C82.3925 12.239 82.3885 12.3994 82.3804 12.5529H77.2617V10.5235Z" fill="#CAFF58"/>
<path d="M67.7945 5.52322H70.6194V6.44377H70.9816C71.1265 6.03929 71.3237 5.73244 71.5732 5.52322C71.8227 5.30006 72.1084 5.18848 72.4303 5.18848C73.0098 5.18848 73.4686 5.54414 73.8066 6.25548C74.1446 6.95286 74.3137 7.91525 74.3137 9.14265V10.9628H72.9374V9.47739C72.9374 8.06867 72.6074 7.36432 71.9474 7.36432C71.5289 7.36432 71.215 7.69209 71.0058 8.34763C70.8046 8.98922 70.7039 9.95161 70.7039 11.2348V15.9212H72.9495V18.0761H68.0118V15.9212H69.376V7.67814H67.7945V5.52322Z" fill="#CAFF58"/>
<path d="M62.4197 18.4109C61.7517 18.4109 61.1722 18.1459 60.6813 17.6159C60.1903 17.0719 59.808 16.3048 59.5344 15.3145C59.2688 14.3242 59.136 13.1526 59.136 11.7997C59.136 10.4468 59.2688 9.27515 59.5344 8.28486C59.808 7.29458 60.1903 6.53443 60.6813 6.00442C61.1722 5.46046 61.7517 5.18848 62.4197 5.18848C63.0958 5.18848 63.6753 5.46046 64.1582 6.00442C64.6491 6.53443 65.0274 7.29458 65.293 8.28486C65.5666 9.27515 65.7035 10.4468 65.7035 11.7997C65.7035 13.1526 65.5666 14.3242 65.293 15.3145C65.0274 16.3048 64.6491 17.0719 64.1582 17.6159C63.6753 18.1459 63.0958 18.4109 62.4197 18.4109ZM62.4197 16.256C63.0394 16.256 63.5223 15.8654 63.8684 15.0844C64.2145 14.3033 64.3876 13.2084 64.3876 11.7997C64.3876 10.391 64.2145 9.29607 63.8684 8.515C63.5223 7.73393 63.0394 7.34339 62.4197 7.34339C61.8 7.34339 61.3171 7.73393 60.971 8.515C60.6249 9.29607 60.4519 10.391 60.4519 11.7997C60.4519 13.2084 60.6249 14.3033 60.971 15.0844C61.3171 15.8654 61.8 16.256 62.4197 16.256Z" fill="#CAFF58"/>
<path d="M54.2684 18.0762H52.9404V7.6782H51.3227V5.52328H52.9404V4.16338C52.9404 2.86625 53.1537 1.84807 53.5803 1.10884C54.0149 0.369613 54.6145 0 55.3791 0C56.1035 0 56.6789 0.320797 57.1055 0.96239C57.5401 1.60398 57.7775 2.49664 57.8178 3.64035H56.6105C56.4978 3.15218 56.3369 2.78256 56.1276 2.5315C55.9264 2.2665 55.6769 2.134 55.3791 2.134C55.025 2.134 54.7513 2.32229 54.5582 2.69888C54.365 3.07546 54.2684 3.61245 54.2684 4.30983V5.52328H57.021V7.6782H54.2684V18.0762Z" fill="#CAFF58"/>
<path d="M43.449 10.5235H47.8072L47.3605 11.6114C47.3605 10.2027 47.2156 9.1287 46.9259 8.38947C46.6361 7.65024 46.2136 7.28063 45.6582 7.28063C45.0546 7.28063 44.5838 7.67117 44.2458 8.45224C43.9077 9.21936 43.7387 10.3003 43.7387 11.6951C43.7387 13.1875 43.9077 14.3312 44.2458 15.1262C44.5838 15.9212 45.0667 16.3187 45.6945 16.3187C46.1049 16.3187 46.4631 16.1444 46.7689 15.7957C47.0748 15.4331 47.3323 14.91 47.5416 14.2266H48.785C48.6643 15.0913 48.4591 15.8375 48.1693 16.4652C47.8877 17.0928 47.5335 17.574 47.107 17.9088C46.6884 18.2435 46.2176 18.4109 45.6945 18.4109C45.0184 18.4109 44.4349 18.1459 43.9439 17.6159C43.461 17.0859 43.0908 16.3187 42.8333 15.3145C42.5757 14.3103 42.4469 13.1038 42.4469 11.6951C42.4469 10.3561 42.5757 9.20541 42.8333 8.24302C43.0989 7.26668 43.4731 6.51351 43.956 5.9835C44.4389 5.45348 45.0063 5.18848 45.6582 5.18848C46.278 5.18848 46.8051 5.43953 47.2398 5.94165C47.6744 6.44377 48.0084 7.17602 48.2418 8.13841C48.4752 9.08686 48.5919 10.2375 48.5919 11.5905C48.5919 11.7439 48.5879 11.9043 48.5798 12.0717C48.5798 12.239 48.5758 12.3994 48.5677 12.5529H43.449V10.5235Z" fill="#CAFF58"/>
<path d="M37.5673 18.4108C37.1809 18.4108 36.8268 18.2783 36.5049 18.0133C36.1829 17.7343 35.9415 17.3717 35.7805 16.9254H35.4183V18.0761H34.0904V0.334595H35.4183V6.67382H35.7805C35.9415 6.21355 36.1829 5.85091 36.5049 5.5859C36.8268 5.32089 37.1809 5.18839 37.5673 5.18839C38.1709 5.18839 38.694 5.46037 39.1367 6.00433C39.5794 6.53434 39.9214 7.29449 40.1629 8.28478C40.4043 9.27506 40.525 10.4467 40.525 11.7996C40.525 13.1525 40.4043 14.3241 40.1629 15.3144C39.9214 16.3047 39.5794 17.0718 39.1367 17.6158C38.694 18.1458 38.1709 18.4108 37.5673 18.4108ZM37.2896 16.2559C37.8932 16.2559 38.36 15.8653 38.69 15.0843C39.028 14.3032 39.1971 13.2083 39.1971 11.7996C39.1971 10.3909 39.028 9.29598 38.69 8.51491C38.36 7.73384 37.8932 7.34331 37.2896 7.34331C36.6779 7.34331 36.2031 7.73384 35.865 8.51491C35.535 9.29598 35.37 10.3909 35.37 11.7996C35.37 13.2083 35.535 14.3032 35.865 15.0843C36.2031 15.8653 36.6779 16.2559 37.2896 16.2559Z" fill="#CAFF58"/>
<path d="M16.7494 5.52332H18.174L20.0331 14.9171H20.8782L20.504 17.0302H19.0553L16.7494 5.52332ZM23.5704 5.52332L20.9024 19.8964C20.7414 20.7472 20.5 21.4097 20.178 21.884C19.8561 22.3582 19.4818 22.5953 19.0553 22.5953C18.4436 22.5953 17.9607 22.3024 17.6066 21.7166C17.2524 21.1308 17.0512 20.28 17.0029 19.1642H18.2102C18.3068 19.6244 18.4114 19.9592 18.5241 20.1684C18.6448 20.3776 18.8058 20.4822 19.007 20.4822C19.184 20.4822 19.3249 20.3846 19.4295 20.1893C19.5422 19.994 19.6428 19.6732 19.7313 19.2269L22.2545 5.52332H23.5704Z" fill="#CAFF58"/>
<path d="M8.62224 5.52322H11.4472V6.44377H11.8094C11.9543 6.03929 12.1515 5.73244 12.401 5.52322C12.6505 5.30006 12.9362 5.18848 13.2581 5.18848C13.8376 5.18848 14.2964 5.54414 14.6344 6.25548C14.9724 6.95286 15.1414 7.91525 15.1414 9.14265V10.9628H13.7652V9.47739C13.7652 8.06867 13.4352 7.36432 12.7752 7.36432C12.3567 7.36432 12.0428 7.69209 11.8335 8.34763C11.6323 8.98922 11.5317 9.95161 11.5317 11.2348V15.9212H13.7772V18.0761H8.83954V15.9212H10.2037V7.67814H8.62224V5.52322Z" fill="#CAFF58"/>
<path d="M2.92157 2.25928V5.52304H6.18117V7.67795H2.92157V13.9544C2.92157 14.6936 3.0101 15.2655 3.18717 15.67C3.36423 16.0605 3.62178 16.2558 3.95981 16.2558C4.31394 16.2558 4.58759 16.0466 4.78075 15.6281C4.98196 15.1958 5.13085 14.5472 5.22743 13.6824H6.39847C6.35823 15.2167 6.12483 16.3883 5.69826 17.1973C5.2717 18.0062 4.67612 18.4107 3.91152 18.4107C3.17107 18.4107 2.59963 18.0271 2.19721 17.26C1.79479 16.4929 1.59358 15.4189 1.59358 14.0381V7.67795H0V5.52304H1.59358V2.25928H2.92157Z" fill="#CAFF58"/>
<path d="M85.3355 30L99.0127 56.6935L99.0752 57.3797H99.4499L99.5124 56.6935L113.127 30H116L100.449 60.4676V84.8966H97.8261V60.4676L82.2753 30H85.3355Z" fill="#CAFF58"/>
<path d="M40.9191 30H43.5421V68.6335C43.5421 73.254 44.5622 76.8223 46.6023 79.3383C48.6841 81.8544 51.6194 83.1125 55.4082 83.1125C59.197 83.1125 62.1323 81.8544 64.2141 79.3383C66.2959 76.8223 67.3368 73.254 67.3368 68.6335V30H69.8973V68.6335C69.8973 74.1232 68.6275 78.3548 66.0877 81.3284C63.5896 84.2562 60.0297 85.7201 55.4082 85.7201C50.7867 85.7201 47.206 84.2562 44.6662 81.3284C42.1681 78.3548 40.9191 74.1232 40.9191 68.6335V30Z" fill="#CAFF58"/>
<path d="M0 84.8966V30H11.2416C16.3627 30 20.3181 31.258 23.1077 33.7741C25.9389 36.2445 27.3545 39.7442 27.3545 44.2731C27.3545 47.5212 26.5843 50.2203 25.0437 52.3704C23.5032 54.4747 21.3174 55.8472 18.4862 56.4876V57.1738C21.4839 57.9058 23.7947 59.4154 25.4185 61.7028C27.0839 63.9902 27.9166 66.8722 27.9166 70.349C27.9166 75.0152 26.4594 78.6064 23.5449 81.1225C20.672 83.6386 16.5709 84.8966 11.2416 84.8966H0ZM2.62304 82.289H11.2416C15.7382 82.289 19.194 81.2597 21.6088 79.2011C24.0653 77.0967 25.2936 74.146 25.2936 70.349C25.2936 66.4605 24.0653 63.4869 21.6088 61.4283C19.194 59.324 15.7382 58.2718 11.2416 58.2718H2.62304V82.289ZM2.62304 55.8014H11.2416C15.5717 55.8014 18.9025 54.795 21.2341 52.7821C23.6073 50.7692 24.7939 47.9329 24.7939 44.2731C24.7939 40.5219 23.6073 37.6398 21.2341 35.6269C18.9025 33.614 15.5717 32.6076 11.2416 32.6076H2.62304V55.8014Z" fill="#CAFF58"/>
<path d="M54.8004 77V51H56.1487V77H54.8004ZM50.7554 69.096C50.925 70.396 51.4083 71.384 52.2055 72.06C53.0196 72.7187 54.1305 73.048 55.5382 73.048C56.8611 73.048 57.8956 72.6753 58.6419 71.93C59.4051 71.1847 59.7867 70.1533 59.7867 68.836C59.7867 67.7613 59.4984 66.912 58.9217 66.288C58.3451 65.664 57.4716 65.2653 56.3014 65.092L54.1898 64.806C52.5616 64.546 51.3235 63.948 50.4755 63.012C49.6445 62.0587 49.229 60.7933 49.229 59.216C49.229 57.9853 49.4834 56.928 49.9922 56.044C50.501 55.1427 51.2303 54.4493 52.18 53.964C53.1298 53.4787 54.2492 53.236 55.5382 53.236C56.8441 53.236 57.9635 53.4787 58.8963 53.964C59.8291 54.432 60.5584 55.1253 61.0841 56.044C61.6099 56.9627 61.9152 58.0893 62 59.424H60.2701C60.1005 57.9507 59.6171 56.8413 58.82 56.096C58.0228 55.3333 56.9289 54.952 55.5382 54.952C54.1305 54.952 53.0196 55.3333 52.2055 56.096C51.4083 56.8413 51.0098 57.8813 51.0098 59.216C51.0098 60.2733 51.2981 61.114 51.8748 61.738C52.4514 62.362 53.3249 62.7693 54.4951 62.96L56.6067 63.246C58.2518 63.506 59.4899 64.1127 60.3209 65.066C61.152 66.002 61.5675 67.2587 61.5675 68.836C61.5675 70.0493 61.3216 71.098 60.8297 71.982C60.3379 72.866 59.6425 73.5507 58.7436 74.036C57.8447 74.5213 56.7763 74.764 55.5382 74.764C54.2153 74.764 53.0789 74.5473 52.1292 74.114C51.1794 73.6807 50.4416 73.0393 49.9159 72.19C49.3901 71.3407 49.0848 70.3093 49 69.096H50.7554Z" fill="#CAFF58"/>
</svg>
